<svg width="40" height="40" viewBox="0 0 40 40" fill="none" xmlns="http://www.w3.org/2000/svg">
<path d="M28.8516 9.30195C28.7058 8.96117 28.2302 8.83718 27.7794 9.01664C27.7044 8.77914 27.6172 8.54304 27.5172 8.30922C26.9744 7.04047 26.1268 5.99578 25.0962 5.22406C22.9984 3.6532 20.5045 4.2282 17.9218 5.33304C14.0703 6.98062 12.9179 9.99656 14.5654 13.848C15.0711 15.0301 14.8456 16.4452 15.7819 17.1986C15.8394 17.2448 15.8975 17.2902 15.9562 17.3347C18.0571 18.9266 20.3169 20.8631 22.9138 19.7523C23.6309 19.4455 24.8892 17.5551 25.4543 17.0755C26.9478 15.808 27.8795 14.0141 28.0863 12.1008C28.093 12.0387 27.9631 11.9823 27.9683 11.9198C27.9744 11.8467 28.1152 11.7677 28.1192 11.6943C28.143 11.2513 28.1279 10.8036 28.0721 10.356C28.1445 10.3405 28.2175 10.3184 28.2897 10.2876C28.749 10.0912 29.0004 9.64992 28.8516 9.30195Z" fill="#FFD591"/>
<path d="M17.5606 4.31875C16.8338 4.62969 16.1807 5.0407 15.6102 5.52883C15.1632 3.74922 13.6939 1.64039 12.5945 0.785703C10.9677 -0.479063 8.62368 -0.185626 7.35891 1.44117C6.09415 3.06797 6.38759 5.41203 8.01438 6.6768C9.14743 7.55766 11.6681 8.49086 13.5213 8.4268C12.782 10.2388 12.7394 12.3342 13.57 14.2758C14.0747 15.4555 14.8427 16.4414 15.7763 17.1945C15.8895 17.1609 16.002 17.1195 16.113 17.0719C17.7364 16.375 18.488 14.4937 17.7911 12.8703C17.7567 12.7914 17.7192 12.7148 17.6802 12.6398C17.9544 12.1367 18.113 11.5742 18.1349 10.9953C18.1895 10.975 18.2434 10.9539 18.2974 10.9305C19.6028 10.3711 20.4458 9.18359 20.6255 7.87266C21.2513 7.83984 21.8989 7.69453 22.5317 7.42344C23.6763 6.93203 24.5583 6.12344 25.0684 5.20391C22.9731 3.64922 20.1317 3.21875 17.5606 4.31875Z" fill="black"/>
<path d="M13.5208 8.62219C13.4812 8.62219 13.4413 8.61024 13.4067 8.58531C13.3192 8.52219 13.2995 8.40016 13.3625 8.31266L15.4516 5.41414C15.5147 5.32664 15.6367 5.30688 15.7243 5.36992C15.8118 5.43305 15.8316 5.55508 15.7685 5.64258L13.6794 8.54109C13.6412 8.59406 13.5814 8.62219 13.5208 8.62219Z" fill="black"/>
<path d="M24.9534 8.63781C24.6897 8.85633 24.843 11.0352 25.6061 11.1863C25.2956 11.4468 24.8801 11.5772 24.4483 11.5105C23.6519 11.3879 23.1056 10.6427 23.2283 9.84617C23.3509 9.04961 24.0962 8.50343 24.8926 8.62609C24.9144 8.62968 24.9341 8.63218 24.9534 8.63781Z" fill="white"/>
<path d="M26.1127 10.2904C26.0567 10.6552 25.8698 10.9677 25.606 11.1862C24.843 11.0352 24.3272 10.3081 24.4466 9.53367C24.5032 9.16914 24.6896 8.85633 24.9533 8.63781C25.7165 8.7889 26.2323 9.51593 26.1127 10.2904Z" fill="black"/>
<path d="M28.1192 11.7031C28.1114 11.8352 28.1005 11.9672 28.0864 12.0984C28.0645 12.1 28.0427 12.1008 28.0208 12.1008C27.9341 12.1008 27.8458 12.0906 27.7575 12.0703C27.4247 11.9914 27.1395 11.7719 26.9747 11.4672C26.9231 11.3719 26.9591 11.2531 27.0536 11.2023C27.1489 11.1508 27.2669 11.1867 27.3184 11.2813C27.4302 11.4883 27.6224 11.6367 27.8466 11.6898C27.9395 11.7117 28.0325 11.7156 28.1192 11.7031Z" fill="black"/>
<path d="M23.7356 8.07875C23.844 8.27156 23.5891 8.62055 23.1663 8.8582C22.7436 9.09586 22.313 9.13219 22.2045 8.93937C22.0961 8.74656 22.3509 8.39758 22.7738 8.15992C23.1966 7.92226 23.6271 7.88594 23.7356 8.07875Z" fill="black"/>
<path d="M20.3221 14.0483C20.8914 13.0846 20.5717 11.8419 19.6079 11.2726C18.6442 10.7034 17.4015 11.0231 16.8323 11.9868C16.263 12.9505 16.5827 14.1932 17.5465 14.7625C18.5102 15.3318 19.7529 15.012 20.3221 14.0483Z" fill="#FFD591"/>
<path d="M18.485 14.2218C17.9536 14.2218 17.4739 13.8527 17.3554 13.3129C17.2893 13.0112 17.3445 12.7017 17.5111 12.4415C17.6776 12.1813 17.9356 12.0016 18.2373 11.9354C18.3429 11.9123 18.4469 11.979 18.47 12.0843C18.4931 12.1897 18.4264 12.2938 18.3211 12.3169C18.1212 12.3607 17.9504 12.4798 17.8401 12.6521C17.7298 12.8244 17.6933 13.0294 17.7371 13.2291C17.7809 13.429 17.9 13.5998 18.0722 13.7101C18.2446 13.8204 18.4496 13.8571 18.6494 13.8131C18.7548 13.7901 18.8589 13.8567 18.882 13.962C18.9051 14.0674 18.8384 14.1716 18.7331 14.1947C18.6499 14.213 18.5668 14.2218 18.485 14.2218Z" fill="black"/>
<path d="M28.0535 26.3935C28.8521 25.796 29.3689 24.8427 29.3689 23.7685C29.3689 22.2466 28.3312 20.9678 26.9248 20.5996C27.0349 20.4303 27.359 19.8684 27.2647 19.2446C27.1517 18.4973 26.3631 18.2491 26.3631 18.2491L25.4242 16.7456C25.4242 16.7456 24.4617 16.8462 24.4086 16.9037C24.3937 16.9198 24.4677 17.2493 24.5817 17.7142C24.2499 17.9224 23.8979 18.1077 23.5263 18.2665C20.9216 19.3805 18.0388 18.9243 15.9364 17.3196L13.5714 24.9275L13.6985 25.1564L13.4543 25.3041L13.2081 26.0961C13.2064 26.0964 11.2321 27.5248 11.2321 27.5248L11.8914 31.0629L15.2463 32.8217L16.3297 32.0377L16.4288 31.7388L16.6634 31.7962L18.8226 30.2336H21.049H22.6284L23.3095 31.1422L23.5323 31.2318C23.5323 31.2318 23.4916 31.3848 23.5519 31.4653C23.7235 31.6941 23.9722 32.0259 23.9722 32.0259L27.6093 31.8136L29.8754 28.8248L28.0535 26.3935Z" fill="#EB2F96"/>
<path d="M17.6305 24.2125C17.4149 23.9008 17.1469 23.6352 16.8875 23.3781C16.6399 23.1328 16.4063 22.9008 16.2149 22.6328C15.6461 21.8375 15.9133 20.725 16.1719 19.65C16.3344 18.9719 16.5 18.2828 16.4484 17.6773C16.2906 17.5766 16.1359 17.4695 15.9859 17.3562C16.1781 17.9469 15.9938 18.7164 15.7914 19.5586C15.5133 20.7195 15.225 21.9195 15.8969 22.8602C16.1078 23.1547 16.3641 23.4094 16.6125 23.6555C16.8703 23.9109 17.1141 24.1523 17.3094 24.4352C17.6695 24.9555 17.7867 25.7289 17.3609 26.1227C16.9672 26.4859 16.2914 26.3758 15.7969 26.1047C15.575 25.9836 15.3695 25.8383 15.1524 25.6836C14.8414 25.4641 14.5203 25.2359 14.1516 25.0883C13.9602 25.0117 13.7664 24.9594 13.5711 24.9273L13.4539 25.3039C13.6406 25.3305 13.825 25.3781 14.0063 25.4508C14.3328 25.582 14.6211 25.7859 14.9266 26.0023C15.1438 26.1562 15.368 26.3156 15.6094 26.4477C15.9188 26.6164 16.3149 26.7461 16.7047 26.7461C17.0359 26.7461 17.3625 26.6523 17.6258 26.4094C18.2297 25.8516 18.0789 24.8609 17.6305 24.2125Z" fill="#FFEC3D"/>
<path d="M12.6898 27.7109C12.3766 27.5766 11.8781 27.4797 11.2773 27.7695L11.3516 28.1648C11.7562 27.9406 12.1547 27.9062 12.5367 28.0695C13.5492 28.5031 14.2234 30.2664 13.9234 31.6984C13.8992 31.8125 13.8656 31.9398 13.8172 32.0726L14.168 32.2562C14.2242 32.1062 14.2703 31.9469 14.3055 31.7781C14.6453 30.1562 13.875 28.2172 12.6898 27.7109Z" fill="#FFEC3D"/>
<path d="M24.9477 26.9133C24.55 26.5336 23.9055 26.4 23.2648 26.5641C22.7117 26.7062 22.2234 27.032 21.793 27.3195L21.7305 27.3609C20.7164 28.0375 19.8406 28.6227 18.6859 28.9648C18.5898 28.9937 18.493 29.0211 18.3969 29.0484C17.4797 29.3078 16.5312 29.5766 16.257 30.7812C16.1633 31.1922 16.1945 31.6273 16.3297 32.0375L16.6633 31.7961C16.5812 31.4883 16.5687 31.1703 16.6375 30.868C16.8602 29.8891 17.6219 29.6734 18.5031 29.4242C18.6016 29.3961 18.6992 29.3687 18.7969 29.3398C20.0086 28.9805 20.907 28.3805 21.9477 27.6859L22.0094 27.6445C22.4344 27.3609 22.8727 27.068 23.3617 26.943C23.4977 26.9078 23.6508 26.8867 23.8086 26.8867C24.1164 26.8867 24.4398 26.9687 24.6781 27.1961C24.9961 27.4984 25.1078 28.0406 24.9641 28.5758C24.8227 29.0969 24.4836 29.5672 24.1836 29.982C23.9258 30.3383 23.6336 30.7422 23.3094 31.1422L23.3922 31.2523L23.5516 31.4656C23.9055 31.0328 24.2227 30.5953 24.5 30.2109C24.8195 29.7687 25.1812 29.268 25.3406 28.6773C25.4852 28.143 25.457 27.3992 24.9477 26.9133Z" fill="#FFEC3D"/>
<path d="M22.7843 21.0047C22.5422 20.6789 21.9687 20.1828 20.85 20.5148C19.7859 20.8305 19.0625 21.9187 19.2375 22.9406C19.3672 23.6961 19.9789 24.3453 20.7258 24.5187C20.8929 24.5578 21.057 24.5766 21.2148 24.5766C21.8398 24.5766 22.3828 24.2789 22.7476 23.7219C23.2875 22.8961 23.3039 21.7023 22.7843 21.0047ZM22.4203 23.5078C22.2078 23.8328 21.7156 24.3476 20.814 24.1383C20.2164 23.9992 19.7265 23.4797 19.6226 22.8742C19.482 22.0555 20.0953 21.1461 20.9617 20.8891C21.6312 20.6906 22.1531 20.8109 22.4711 21.2375C22.8922 21.8039 22.8695 22.8219 22.4203 23.5078Z" fill="#FFEC3D"/>
<path d="M29.3937 29.0906C29.1109 29.0312 28.8883 28.7945 28.6461 28.5148L26.6687 26.2258C26.4031 25.918 26.1015 25.5687 26.0008 25.1664C25.8039 24.3891 26.2679 23.6445 26.7593 22.8562C27.1406 22.2437 27.5351 21.6109 27.6156 20.9359C27.6179 20.9148 27.6211 20.8937 27.625 20.8727C27.5062 20.8094 27.3836 20.7539 27.2562 20.7055C27.2445 20.7656 27.2351 20.8273 27.2281 20.8898C27.1578 21.4781 26.7867 22.0734 26.4281 22.6492C25.9148 23.4719 25.3851 24.3234 25.6218 25.2617C25.7453 25.7539 26.0789 26.1398 26.3734 26.4805L28.3508 28.7703C28.5734 29.0281 28.8789 29.3812 29.3133 29.4727C29.3343 29.4773 29.3547 29.4805 29.3758 29.4836L29.6765 29.0867C29.5804 29.1078 29.4836 29.1094 29.3937 29.0906Z" fill="#FFEC3D"/>
<path d="M25.0982 27.379C24.9731 27.379 24.844 27.3759 24.7105 27.3691C24.6027 27.3638 24.5198 27.272 24.5252 27.1643C24.5305 27.0566 24.6202 26.9737 24.73 26.979C26.901 27.088 27.8605 26.194 27.87 26.1849C27.9477 26.1105 28.0711 26.1126 28.1459 26.1898C28.2206 26.267 28.2191 26.3899 28.1422 26.465C28.1019 26.5045 27.1807 27.379 25.0982 27.379Z" fill="black"/>
<path d="M36.5958 18.0492L34.3927 18.7758L34.3911 18.7711C34.3106 18.807 34.2286 18.8391 34.1442 18.8672L24.7544 22.0016L23.2263 16.9937L29.7934 14.7742L31.1958 13.7594L32.995 12.2961C33.2755 12.068 33.6864 12.1102 33.9145 12.3906C34.1419 12.6703 34.0997 13.082 33.82 13.3094L33.5067 13.5641L34.9599 13.0852C35.302 12.9727 35.6716 13.1586 35.7849 13.5016C35.8974 13.8438 35.7114 14.2133 35.3684 14.3266C35.7114 14.2133 36.0809 14.4 36.1934 14.7422C36.3044 15.0781 36.1278 15.4383 35.7989 15.5594C36.1356 15.4633 36.4919 15.6477 36.6028 15.9836C36.7153 16.3258 36.5294 16.6953 36.1864 16.8086C36.5294 16.6953 36.8989 16.882 37.0122 17.2242C37.1247 17.5672 36.9388 17.9367 36.5958 18.0492Z" fill="#FFD591"/>
<path d="M34.6085 17.5241C34.5264 17.5241 34.4501 17.472 34.423 17.3898C34.3893 17.2873 34.445 17.177 34.5474 17.1432L35.9638 16.6763C36.0663 16.6428 36.1768 16.6983 36.2104 16.8007C36.2442 16.9032 36.1885 17.0136 36.0861 17.0473L34.6696 17.5142C34.6494 17.5209 34.6287 17.5241 34.6085 17.5241Z" fill="black"/>
<path d="M34.2005 16.2863C34.1185 16.2863 34.0422 16.2342 34.015 16.1521C33.9813 16.0496 34.037 15.9392 34.1394 15.9055L35.5558 15.4386C35.6584 15.4048 35.7687 15.4605 35.8025 15.563C35.8362 15.6655 35.7805 15.7759 35.6781 15.8096L34.2617 16.2765C34.2414 16.2832 34.2207 16.2863 34.2005 16.2863Z" fill="black"/>
<path d="M33.7926 15.0487C33.7105 15.0487 33.6342 14.9966 33.6071 14.9145C33.5733 14.812 33.629 14.7016 33.7315 14.6678L35.1479 14.2009C35.2504 14.1673 35.3608 14.2229 35.3945 14.3253C35.4283 14.4278 35.3726 14.5382 35.2701 14.572L33.8537 15.0388C33.8335 15.0455 33.8129 15.0487 33.7926 15.0487Z" fill="black"/>
<path d="M19.2437 23.7151L17.7111 18.3584L23.2095 16.9376L24.7544 22.0016L19.2437 23.7151Z" fill="#EB2F96"/>
<path d="M22.7844 21.0047C22.5422 20.6789 21.9688 20.1828 20.85 20.5148C19.786 20.8305 19.0625 21.9188 19.2375 22.9406C19.2797 23.1875 19.3735 23.4219 19.5071 23.6328L19.8946 23.5125C19.7586 23.3227 19.6625 23.1047 19.6227 22.8742C19.4821 22.0555 20.0953 21.1461 20.9617 20.8891C21.6313 20.6906 22.1532 20.8109 22.4711 21.2375C22.7321 21.5891 22.8227 22.1141 22.7469 22.6258L23.1539 22.4992C23.1992 21.9469 23.0766 21.3969 22.7844 21.0047Z" fill="#FFEC3D"/>
<path d="M19.2174 23.926C19.134 23.926 19.0567 23.8721 19.0309 23.7882C18.9991 23.6852 19.057 23.5758 19.16 23.5441L24.6628 21.848C24.7656 21.8163 24.8752 21.874 24.907 21.9771C24.9388 22.0802 24.881 22.1895 24.7778 22.2213L19.275 23.9174C19.2559 23.9232 19.2365 23.926 19.2174 23.926Z" fill="black"/>
<path d="M26.7201 16.0607C26.6931 15.9562 26.5867 15.8936 26.4821 15.9205L17.621 18.2162C17.5166 18.2433 17.4539 18.3498 17.4809 18.4542C17.5028 18.5387 17.5767 18.5959 17.6595 18.6004C17.679 18.6014 17.6989 18.5995 17.7189 18.5944L26.58 16.2987C26.6844 16.2717 26.7471 16.1652 26.7201 16.0607Z" fill="black"/>
<path d="M31.1394 38.8301C31.1394 39.4088 30.7002 39.8846 30.1368 39.9423C30.0988 39.9462 29.9331 39.7988 29.9331 39.7988L29.7403 39.9482H24.9397L24.8267 39.7024L24.5275 39.9482H23.2244C23.0329 39.9482 22.8911 39.7727 22.9308 39.5862L23.3492 37.6242L23.5801 37.5016L23.4307 37.2422L23.7662 35.6688L27.5223 34.1473L30.5622 35.6688L30.1284 37.7178C30.14 37.7189 30.1515 37.7202 30.163 37.7216C30.2345 37.7307 30.262 37.9053 30.3287 37.9272C30.3837 37.9452 30.4787 37.8086 30.5296 37.8346C30.8915 38.0194 31.1394 38.3955 31.1394 38.8301Z" fill="#13C2C2"/>
<path d="M24.9364 39.9484H24.5247C24.5247 39.9187 24.5317 39.8883 24.5458 39.8602C24.8075 39.3453 24.7793 38.7422 24.4723 38.2852C24.1043 37.7383 23.4872 37.6414 23.3676 37.6273C23.3614 37.6266 23.3551 37.6258 23.3489 37.6242L23.4309 37.2422C23.6629 37.2719 24.3567 37.4141 24.7958 38.0672C25.1645 38.6148 25.2161 39.3273 24.9364 39.9484Z" fill="black"/>
<path d="M30.5333 37.8367L30.1387 39.943C30.1005 39.9461 30.0614 39.9484 30.0215 39.9484H29.7403L30.1583 37.7211C30.2919 37.7375 30.4184 37.7773 30.5333 37.8367Z" fill="black"/>
<path d="M31.2004 32.6578L30.5621 35.6687H23.7661L24.3762 32.8055C24.402 32.6875 24.3746 32.5633 24.302 32.4672L23.9723 32.0258L29.8754 28.825L30.5536 29.7305C31.1809 30.5672 31.4161 31.6344 31.2004 32.6578Z" fill="#FFD591"/>
<path d="M8.93462 38.2233C9.29837 38.722 9.18946 39.4208 8.69071 39.7853C8.19196 40.1491 7.49235 40.0393 7.12868 39.5405L6.99235 39.3514L7.0043 39.0541L6.76837 39.0407L4.03555 35.2491V34.9849L3.80438 34.9284L3.00954 33.8255C2.91673 33.6981 2.9454 33.5192 3.07282 33.4272L3.92165 32.8132L4.15852 32.8572L4.23938 32.5834L6.34212 31.0625L9.7968 33.05L10.2291 36.4509L8.5354 37.6762L8.55204 37.6991L8.46704 37.967L8.78251 38.0148L8.93462 38.2233Z" fill="#13C2C2"/>
<path d="M4.67235 34.1C4.60438 34.5469 4.37391 34.9508 4.03407 35.2469L3.80438 34.9281C4.06063 34.6953 4.23407 34.3844 4.28641 34.0406C4.38407 33.3984 4.00673 32.9133 3.92157 32.8133L4.23954 32.5836C4.39891 32.7773 4.78876 33.343 4.67235 34.1Z" fill="black"/>
<path d="M8.78251 38.0148L7.0411 39.3172C7.02469 39.3297 7.00673 39.3383 6.98798 39.3453L6.76923 39.0414C6.77938 39.0273 6.79188 39.0148 6.80673 39.0039L8.55204 37.6992L8.78251 38.0148Z" fill="black"/>
<path d="M15.2458 32.8211L10.2294 36.4508L6.34186 31.0625L11.2317 27.525L15.2458 32.8211Z" fill="#FFD591"/>
</svg>
