<svg width="40" height="40" viewBox="0 0 40 40" fill="none" xmlns="http://www.w3.org/2000/svg">
<path d="M34.0062 4.45392H20.1062C19.5518 4.45392 19.1023 4.90338 19.1023 5.45782V15.1172C19.1023 15.6716 19.5518 16.1211 20.1062 16.1211H34.0062C34.5606 16.1211 35.0101 15.6716 35.0101 15.1172V5.45782C35.0101 4.90338 34.5606 4.45392 34.0062 4.45392Z" fill="#E524FF"/>
<path d="M30.21 3.2547C30.1491 2.71251 29.9757 2.25157 29.4452 2.13361L27.535 2.16329C26.8569 2.61173 26.6061 3.0672 26.5077 3.41329C26.3835 3.84845 26.5077 4.07267 26.2866 4.35079C25.9936 4.71564 25.6022 4.54454 25.1929 4.97579C25.0866 5.08673 24.8304 5.35392 24.8804 5.6922C24.9382 6.08282 25.3577 6.27111 25.4022 6.28986L29.4436 6.77892C29.7991 6.79767 30.2686 6.77423 30.4225 6.50314C30.6108 6.17267 30.1171 5.84298 30.0265 5.04064C29.9405 4.30079 30.3124 4.17501 30.21 3.2547Z" fill="#570B7F"/>
<path d="M28.8281 5.84846C28.7388 5.93531 28.631 6.00071 28.5127 6.03968C28.3944 6.07865 28.2688 6.09018 28.1454 6.07339C28.022 6.0566 27.904 6.01193 27.8005 5.94277C27.6969 5.87361 27.6104 5.78178 27.5476 5.67424L28.0203 4.06955L28.8015 4.17502L28.8281 5.84846Z" fill="#FF83DF"/>
<path d="M28.8116 4.80237L28.803 4.25549L27.9984 4.14612C27.9476 4.31956 27.896 4.49299 27.8421 4.66643C28.1358 4.83478 28.483 4.88347 28.8116 4.80237Z" fill="#FF59CF"/>
<path d="M28.5289 4.19063C29.0458 4.19063 29.4648 3.7716 29.4648 3.25469C29.4648 2.73779 29.0458 2.31876 28.5289 2.31876C28.012 2.31876 27.593 2.73779 27.593 3.25469C27.593 3.7716 28.012 4.19063 28.5289 4.19063Z" fill="#FF83DF"/>
<path d="M27.6023 3.12894C27.6023 3.12894 27.5578 3.87816 27.7476 4.22269C27.8279 4.36082 27.9419 4.47639 28.0789 4.55862C28.1579 4.60841 28.2467 4.64072 28.3393 4.65338C28.4319 4.66605 28.5261 4.65878 28.6156 4.63206C28.7695 4.58944 28.9103 4.50885 29.025 4.39769C29.2968 4.11487 29.4531 3.38128 29.4531 3.38128C28.3437 3.22894 28.7687 3.28675 27.6023 3.12894Z" fill="#FF83DF"/>
<path d="M31.9476 9.61951L28.828 5.84841L27.5476 5.67419L24.5421 7.10935L22.1304 15.9609L33.0897 16.1258L31.9476 9.61951Z" fill="#8F00CD"/>
<path d="M29.2663 3.51564C29.2663 3.51564 28.7742 3.33829 28.8804 2.57814C28.8804 2.57814 28.5538 2.24845 28.3929 2.73048C28.3335 2.88969 28.2238 3.02518 28.0804 3.11642C27.9913 3.18355 27.8887 3.23047 27.7796 3.25392C27.7312 3.32501 27.6827 3.3961 27.6351 3.46798L27.4077 3.5172C27.1851 3.0836 27.2093 2.5797 27.4765 2.22814C27.5705 2.10722 27.6883 2.00695 27.8227 1.93356C27.9571 1.86018 28.1052 1.81525 28.2577 1.80157C28.5148 1.78673 28.8687 1.86876 29.057 2.11407C29.2452 2.35939 29.7812 2.03595 29.9031 2.49532C30.0249 2.9547 29.5523 3.89142 29.5523 3.89142L29.2663 3.51564Z" fill="#570B7F"/>
<path d="M27.7197 3.88662C27.8901 3.8168 27.9547 3.58062 27.8639 3.35912C27.7732 3.13761 27.5615 3.01465 27.391 3.08448C27.2206 3.1543 27.156 3.39047 27.2468 3.61198C27.3375 3.83349 27.5493 3.95645 27.7197 3.88662Z" fill="#FF83DF"/>
<path d="M29.7042 3.94471C29.8507 3.75529 29.8514 3.51033 29.7057 3.39758C29.5599 3.28482 29.323 3.34697 29.1764 3.53639C29.0299 3.72581 29.0292 3.97077 29.1749 4.08352C29.3207 4.19628 29.5576 4.13413 29.7042 3.94471Z" fill="#FF83DF"/>
<path d="M27.6109 3.69219C27.586 3.68794 27.5622 3.67882 27.5409 3.66535C27.5196 3.65189 27.5011 3.63434 27.4866 3.61373C27.4721 3.59311 27.4618 3.56982 27.4563 3.54521C27.4508 3.5206 27.4502 3.49515 27.4546 3.47031C27.4629 3.44774 27.4792 3.42897 27.5003 3.41747C27.5214 3.40597 27.546 3.40254 27.5695 3.40781C27.5452 3.35547 27.482 3.23984 27.4421 3.28125C27.4237 3.3126 27.4158 3.34899 27.4195 3.38516C27.4201 3.39539 27.4167 3.40548 27.41 3.41322C27.4032 3.42097 27.3937 3.42576 27.3835 3.42656C27.3784 3.4271 27.3732 3.42658 27.3682 3.42505C27.3633 3.42351 27.3587 3.42099 27.3547 3.41763C27.3508 3.41427 27.3476 3.41014 27.3453 3.4055C27.343 3.40086 27.3416 3.3958 27.3413 3.39062C27.3351 3.29609 27.3671 3.19531 27.4655 3.19531C27.5827 3.19922 27.6585 3.41406 27.6726 3.45703C27.6749 3.46435 27.6751 3.47221 27.673 3.47961C27.6709 3.48701 27.6666 3.49363 27.6608 3.49864C27.655 3.50365 27.6478 3.50682 27.6401 3.50775C27.6325 3.50869 27.6248 3.50735 27.6179 3.50391C27.5941 3.49061 27.5669 3.48463 27.5398 3.48672C27.5093 3.49844 27.5499 3.5875 27.5976 3.61016C27.6101 3.61562 27.6226 3.61875 27.6374 3.59297C27.6428 3.58423 27.6513 3.57794 27.6613 3.57546C27.6712 3.57298 27.6817 3.57449 27.6905 3.57969C27.7413 3.61016 27.678 3.69219 27.6109 3.69219Z" fill="#570B7F"/>
<path d="M29.3297 3.92657C29.3055 3.92642 29.2821 3.91784 29.2635 3.90229C29.245 3.88674 29.2325 3.86521 29.2281 3.84142C29.2254 3.83106 29.2269 3.82005 29.2324 3.81082C29.2378 3.80159 29.2467 3.79489 29.257 3.7922C29.2674 3.7895 29.2784 3.79104 29.2876 3.79646C29.2968 3.80188 29.3035 3.81074 29.3062 3.8211C29.314 3.85001 29.3265 3.85001 29.3398 3.84767C29.3929 3.83829 29.4539 3.76329 29.4281 3.74454C29.4032 3.73509 29.376 3.73319 29.35 3.73907C29.3425 3.74059 29.3347 3.73987 29.3275 3.73698C29.3204 3.73409 29.3143 3.72918 29.31 3.72284C29.3057 3.71651 29.3033 3.70904 29.3032 3.70137C29.3031 3.69369 29.3052 3.68616 29.3094 3.6797C29.3344 3.64142 29.4656 3.4547 29.5789 3.48282C29.6719 3.50548 29.6781 3.61564 29.6461 3.70392C29.6421 3.71282 29.6348 3.7199 29.6258 3.72375C29.6169 3.72759 29.6068 3.72793 29.5975 3.72469C29.5883 3.72145 29.5806 3.71488 29.576 3.70626C29.5714 3.69764 29.5702 3.6876 29.5726 3.67814C29.5861 3.64431 29.5883 3.60705 29.5789 3.57189C29.5515 3.52189 29.4594 3.61564 29.4226 3.65939C29.4432 3.66211 29.4628 3.6699 29.4797 3.68204C29.5726 3.75626 29.4531 3.92657 29.3297 3.92657Z" fill="#570B7F"/>
<path d="M21.4023 29.9477C26.6749 29.9477 30.9492 25.6734 30.9492 20.4008C30.9492 15.1282 26.6749 10.8539 21.4023 10.8539C16.1297 10.8539 11.8554 15.1282 11.8554 20.4008C11.8554 25.6734 16.1297 29.9477 21.4023 29.9477Z" fill="#00E4E0"/>
<path d="M13.3265 19.05C13.4351 18.9141 13.5562 18.7375 13.7172 18.6547C14.0023 18.511 14.1617 18.6711 14.4023 18.7391C14.646 18.8103 14.9079 18.7843 15.1328 18.6664C15.2269 18.6183 15.3103 18.5517 15.3781 18.4707C15.446 18.3897 15.4969 18.2958 15.5278 18.1948C15.5587 18.0937 15.569 17.9875 15.558 17.8823C15.5471 17.7772 15.5151 17.6754 15.464 17.5828C15.5455 17.5526 15.6196 17.5052 15.6812 17.4439C15.7428 17.3826 15.7905 17.3087 15.8211 17.2274C15.9929 16.7836 15.4984 16.275 15.7234 15.8688C15.8797 15.5836 16.3547 15.8141 16.575 15.8453C16.752 15.8715 16.9324 15.863 17.1062 15.8203C17.4969 15.7235 17.8726 15.4711 18.1742 15.2094C18.5359 14.8969 18.5383 14.6352 18.432 14.2008C18.3461 13.8485 18.6078 13.8282 18.8828 13.8618C19.0819 13.8983 19.285 13.908 19.4867 13.8907C20.632 13.7282 21.5562 12.2211 20.4578 10.9008C18.2166 11.1245 16.1267 12.1331 14.5573 13.7486C12.9879 15.364 12.04 17.4823 11.8812 19.7289C12.4906 19.8438 12.9523 19.518 13.3265 19.05Z" fill="#00C1D7"/>
<path d="M25.6344 11.8422C25.2573 12.0492 24.9278 12.3328 24.6671 12.6749C24.4063 13.0169 24.22 13.4098 24.1203 13.8281C23.5492 13.6719 22.8648 13.8836 22.6156 14.4617C22.3359 15.1109 22.8117 15.7578 23.418 15.957C23.0742 16.4773 23.1234 17.2266 23.6359 17.6359C24.0726 17.9844 24.6851 18.0109 25.1695 17.7711C25.5047 18.8859 26.9039 19.2992 27.8258 18.6102C28.0984 19.0945 28.725 19.3063 29.2664 19.1695C29.4591 19.4108 29.7218 19.5863 30.0185 19.672C30.3151 19.7576 30.631 19.7491 30.9226 19.6477C30.792 18.0002 30.236 16.4149 29.3091 15.0467C28.3821 13.6785 27.1159 12.5744 25.6344 11.8422Z" fill="#00C1D7"/>
<path d="M22.9086 28.125C22.9734 27.5554 22.4242 27.1726 21.8718 27.2336C21.8031 26.7648 21.325 26.4617 20.832 26.5539C20.4695 26.6219 20.2765 27.0586 19.9297 27.0844C19.5265 27.1148 19.0078 26.6492 18.7484 26.3765C18.489 26.1039 18.2195 25.2554 18.9148 25.4008C19.2273 25.4648 19.4757 25.6664 19.8054 25.6695C20.0038 25.6721 20.197 25.6069 20.3533 25.4847C20.5096 25.3626 20.6195 25.1907 20.6648 24.9976C21.464 25.2976 22.4734 24.707 22.1953 23.7539C23.0547 23.3367 22.489 22.1914 22.1375 21.5797C21.675 20.7695 20.9906 20.1906 20.0671 20.2203C20.1414 18.9289 18.3257 18.4695 17.6336 19.5211C17.0867 19.4765 16.5203 19.8562 16.4617 20.4109C15.7086 20.3328 15.0312 20.8594 14.9828 21.6047C14.7686 21.5356 14.5405 21.5216 14.3196 21.5641C14.0986 21.6066 13.892 21.7041 13.7187 21.8476C13.6168 21.7559 13.493 21.6917 13.3593 21.6612C13.2256 21.6307 13.0863 21.6349 12.9547 21.6734C12.4945 21.8125 12.2601 22.2984 12.0953 22.5328C13.3187 27.9008 18.8625 31.1492 24.1734 29.5406C23.9609 28.7914 23.5711 28.1023 22.9086 28.125Z" fill="#00C1D7"/>
<path d="M29.5312 23.4891C29.453 23.1961 29.1624 23.0359 28.8648 23.0531C28.8648 22.5234 28.214 22.1938 27.6827 22.3766C27.5714 22.2203 27.4088 22.108 27.2232 22.0593C27.0376 22.0107 26.8408 22.0286 26.6671 22.1102C26.3312 22.2805 26.2562 22.6656 26.396 22.9695C26.2805 23.0097 26.1819 23.0874 26.1157 23.1902C26.0496 23.293 26.0198 23.415 26.0312 23.5367C26.0569 23.8406 26.2655 24.0664 26.4429 24.2984C26.7601 24.7203 26.6296 25.1156 26.5155 25.5836C26.4121 26.004 26.4374 26.4457 26.5881 26.8515C26.7388 27.2573 27.0081 27.6085 27.3608 27.8594C28.6913 26.796 29.7137 25.3968 30.3226 23.8063C30.2292 23.6896 30.1072 23.5991 29.9686 23.5436C29.8299 23.488 29.6792 23.4692 29.5312 23.4891Z" fill="#00C1D7"/>
<path d="M20.1023 27.0602H6.20227C5.64783 27.0602 5.19836 27.5096 5.19836 28.0641V37.7235C5.19836 38.2779 5.64783 38.7274 6.20227 38.7274H20.1023C20.6567 38.7274 21.1062 38.2779 21.1062 37.7235V28.0641C21.1062 27.5096 20.6567 27.0602 20.1023 27.0602Z" fill="#E524FF"/>
<path d="M27.5483 5.67419C26.8124 5.68904 25.1952 5.82185 23.6046 6.88826C22.9585 7.32185 20.6538 8.86716 20.628 11.5508C20.6007 14.3148 23.0116 15.964 23.2163 16.0992L24.0046 14.4648L23.3366 11.4844L27.5483 5.67419Z" fill="#FF83DF"/>
<path d="M28.8281 5.84846C28.8281 5.84846 30.8734 5.75706 32.1304 7.1094C33.3874 8.46175 34.4156 12.4469 33.8671 14.286C33.3187 16.125 29.4406 17.7149 29.4406 17.7149L28.5265 16.1258L31.2726 13.2352L28.8281 5.84846Z" fill="#FF83DF"/>
<path d="M13.9766 20.511C14.0265 20.6397 14.1052 20.7554 14.2066 20.8492C14.3079 20.9431 14.4293 21.0126 14.5615 21.0525C14.6938 21.0924 14.8334 21.1016 14.9697 21.0796C15.106 21.0575 15.2356 21.0046 15.3484 20.925L15.6109 19.0875L14.775 18.8352L13.9766 20.511Z" fill="#FF59CF"/>
<path d="M14.6874 19.1406L14.7367 18.9133L15.596 19.1735L15.4687 20.0594C15.3219 20.0577 15.1784 20.0149 15.0546 19.936C14.6734 19.6875 14.6874 19.1774 14.6874 19.1406Z" fill="#FF17B6"/>
<path d="M15.4882 19.1984C16.0617 19.1984 16.5265 18.7336 16.5265 18.1602C16.5265 17.5867 16.0617 17.1219 15.4882 17.1219C14.9148 17.1219 14.45 17.5867 14.45 18.1602C14.45 18.7336 14.9148 19.1984 15.4882 19.1984Z" fill="#FF59CF"/>
<path d="M16.5093 18.3445C16.4687 18.5406 16.4312 18.7086 16.3999 18.8398C16.3109 19.2187 16.2749 19.3164 16.2062 19.4203C16.1383 19.5338 16.0433 19.6286 15.9296 19.6961C15.5859 19.882 15.0984 19.6742 14.8249 19.4195C14.6116 19.2134 14.4751 18.9405 14.4382 18.6461C14.4359 18.4225 14.4458 18.199 14.4679 17.9766C15.6929 18.1961 15.2241 18.1117 16.5093 18.3445Z" fill="#FF59CF"/>
<path d="M14.5554 21.0508C16.2225 20.5821 17.1569 20.8946 17.6663 21.2071C18.3757 21.6336 18.721 22.4633 20.9108 24.7289L23.4038 21.3375C23.9304 21.7047 24.4574 22.0714 24.985 22.4375C24.899 23.3159 24.6763 24.1755 24.3249 24.9852C23.9475 25.8508 22.5991 28.9461 20.3093 28.9524C18.7757 28.9563 17.2491 27.5735 16.5225 25.5977C15.8668 24.081 15.2111 22.5654 14.5554 21.0508Z" fill="#FF59CF"/>
<path d="M13.9765 20.511C13.9765 20.511 12.1796 19.7633 10.8788 20.725C9.57802 21.6867 6.67333 25.893 6.85614 27.3438C7.03896 28.7945 8.54755 29.1602 8.54755 29.1602L13.9765 20.511Z" fill="#8F00CD"/>
<path d="M8.42494 31.0109C8.42494 31.0109 8.05151 33.85 8.42494 38.7273H13.7593L13.5703 35.625L14.5453 38.7242H19.7703L17.739 31.5609L14.8812 29.9141L8.42494 31.0109Z" fill="#570B7F"/>
<path d="M10.1382 22.7625C9.04979 25.4299 8.35782 28.2423 8.08431 31.1101C8.07152 31.2443 8.10142 31.3791 8.16974 31.4952C8.23806 31.6114 8.34132 31.703 8.46477 31.757C11.4398 33.0633 14.6671 33.293 17.7999 32.5383C17.8736 32.5206 17.9428 32.4879 18.0033 32.4423C18.0638 32.3967 18.1143 32.3391 18.1516 32.2731C18.1889 32.2072 18.2122 32.1343 18.2201 32.0589C18.228 31.9836 18.2204 31.9074 18.1976 31.8351C17.414 29.3058 17.3329 26.6109 17.9632 24.0391L15.7452 20.8258C15.2799 20.7869 14.818 20.7143 14.3632 20.6086C13.8373 20.3978 13.2636 20.3354 12.7046 20.4281C10.9171 20.7453 10.1843 22.6367 10.1382 22.7625Z" fill="#8F00CD"/>
<path d="M27.8452 5.71488C26.3554 5.3305 25.3874 5.65785 24.9905 5.82894C24.0374 6.2391 23.0499 7.04144 22.3773 7.84456C23.0076 8.60927 23.7761 9.24852 24.6429 9.72894L27.8452 5.71488Z" fill="#FFF3FF"/>
<path d="M28.5288 5.80781C28.5288 5.80781 30.5601 5.71094 31.7413 6.64063C32.9226 7.57031 33.4054 9.57031 33.4054 9.57031L30.4687 10.8078C29.9228 9.27969 29.3759 7.75339 28.828 6.22891L28.5288 5.80781Z" fill="#FFF3FF"/>
<path d="M26.6304 5.53751C26.7455 5.86441 26.9472 6.1539 27.214 6.37501C27.4132 6.52995 27.6383 6.6482 27.8789 6.72423C28.8804 7.01798 29.6382 6.04141 29.7226 5.8797C29.5514 5.84809 29.3779 5.82955 29.2039 5.82423L28.8281 6.03907L28.2359 6.06173L27.2015 5.58751C27.0136 5.54982 26.8221 5.53305 26.6304 5.53751Z" fill="#8F00CD"/>
<path d="M27.0718 5.56485C27.1249 5.66329 27.5132 6.3586 28.1882 6.43672C28.3742 6.46307 28.5639 6.43597 28.7351 6.3586C28.963 6.24667 29.1412 6.05398 29.2351 5.81797L27.0718 5.56485Z" fill="#FF83DF"/>
<path d="M15.3453 18.3773C15.465 18.4293 15.5984 18.4408 15.7252 18.4102C15.8521 18.3796 15.9655 18.3086 16.0484 18.2078C16.2 18.032 16.1914 17.8359 16.2328 17.8398C16.2742 17.8437 16.3047 18.0031 16.2734 18.1523C16.2451 18.2742 16.1782 18.3838 16.0828 18.4648C16.5328 18.5281 16.9352 18.2539 17.0203 17.8859C17.1156 17.4726 16.7945 17.0125 16.4734 16.982C16.386 16.9763 16.2988 16.9964 16.2227 17.0398C16.135 16.8839 16.0156 16.7481 15.8724 16.641C15.7291 16.5339 15.565 16.4579 15.3906 16.418C15.3125 16.4015 14.8063 16.2961 14.4992 16.5742C14.2648 16.789 14.2984 17.0867 14.0078 17.2375C13.919 17.2819 13.8212 17.3054 13.7219 17.3062C13.7113 17.384 13.7315 17.4628 13.7782 17.5258C13.8249 17.5889 13.8944 17.6312 13.9719 17.6437C13.8438 17.7209 13.7412 17.8339 13.6766 17.9687C13.6044 18.1502 13.5883 18.3491 13.6305 18.5398C13.6734 18.8078 13.7734 18.9109 13.7086 19.0312C13.6817 19.0719 13.6463 19.1062 13.6049 19.1319C13.5635 19.1577 13.5171 19.1742 13.4688 19.1805C13.725 19.8281 14.4758 20.0672 14.9734 19.782C15.4094 19.5367 15.6086 18.9148 15.3453 18.3773Z" fill="#570B7F"/>
<path d="M15.3299 19.1005C15.5299 19.0597 15.649 18.8158 15.5959 18.5558C15.5429 18.2957 15.3377 18.118 15.1377 18.1588C14.9377 18.1996 14.8186 18.4435 14.8717 18.7036C14.9247 18.9636 15.1299 19.1414 15.3299 19.1005Z" fill="#FF59CF"/>
<path d="M15.332 18.8641C15.225 18.8641 15.139 18.6899 15.1859 18.6016C15.1993 18.5783 15.2207 18.5606 15.2463 18.5521C15.2718 18.5436 15.2995 18.5448 15.3242 18.5555C15.3008 18.4727 15.2625 18.3875 15.2226 18.3805C15.2179 18.3794 15.213 18.3795 15.2083 18.3805C15.2035 18.3816 15.1991 18.3837 15.1953 18.3867C15.1687 18.4189 15.1536 18.4591 15.1523 18.5008C15.1516 18.5112 15.1468 18.5208 15.1389 18.5276C15.1311 18.5344 15.1209 18.5379 15.1105 18.5371C15.1002 18.5364 15.0905 18.5316 15.0837 18.5238C15.0769 18.5159 15.0735 18.5057 15.0742 18.4953C15.082 18.393 15.1336 18.286 15.2367 18.3039C15.3609 18.3258 15.4109 18.5711 15.4195 18.6203C15.4209 18.628 15.4199 18.636 15.4167 18.6431C15.4136 18.6503 15.4083 18.6563 15.4016 18.6604C15.395 18.6646 15.3873 18.6666 15.3794 18.6663C15.3716 18.6659 15.3641 18.6633 15.3578 18.6586C15.3324 18.6384 15.3011 18.6271 15.2687 18.6266C15.2289 18.6352 15.2601 18.7446 15.3117 18.7828C15.3281 18.7938 15.3422 18.7953 15.3633 18.7696C15.3664 18.7655 15.3703 18.7621 15.3748 18.7595C15.3792 18.757 15.3842 18.7554 15.3893 18.7548C15.3944 18.7542 15.3995 18.7547 15.4045 18.7562C15.4094 18.7576 15.414 18.76 15.4179 18.7633C15.4687 18.7969 15.3906 18.8641 15.332 18.8641Z" fill="#570B7F"/>
<path d="M24.9621 14.1768L28.8503 15.7438C28.8946 15.7617 28.9351 15.7881 28.9692 15.8216C29.0033 15.8551 29.0306 15.895 29.0493 15.9391C29.068 15.9831 29.0779 16.0303 29.0784 16.0782C29.0788 16.126 29.0698 16.1735 29.052 16.2178L26.9088 21.5357C26.891 21.5797 26.8648 21.6198 26.8316 21.6536C26.7984 21.6875 26.7588 21.7144 26.7152 21.733C26.6716 21.7516 26.6247 21.7614 26.5773 21.7618C26.5299 21.7623 26.4828 21.7534 26.4388 21.7357L22.5478 20.1675L24.9621 14.1768Z" fill="#FFC700"/>
<path d="M24.3646 13.9365L28.5906 15.6397L26.1762 21.6304L21.9502 19.9272L24.3646 13.9365Z" fill="#F7E00B"/>
<path d="M22.2591 19.1575L26.7135 20.9527C26.7616 20.972 26.8 21.0097 26.8203 21.0574C26.8406 21.1051 26.8411 21.1589 26.8217 21.207L26.7019 21.5042C26.6845 21.5475 26.6506 21.582 26.6076 21.6003C26.5647 21.6186 26.5163 21.619 26.473 21.6016L22.0005 19.7991L22.2591 19.1575Z" fill="#FFF3FF"/>
<path d="M14.6874 20.7414C14.6874 20.7414 15.6249 20.6883 16.5281 20.6805C17.4312 20.6727 18.7632 21.5719 19.1671 22.2195C19.571 22.8672 19.8296 23.225 20.1273 23.225C20.4249 23.225 20.3171 23.7961 20.6906 23.8195C21.064 23.843 20.9117 24.7258 20.9117 24.7258C20.9117 24.7258 21.6929 27.5203 21.2874 28.7516C21.2874 28.7516 20.9578 29.1523 20.4999 29.1602C20.0421 29.168 20.0054 28.8781 19.6015 29.2438C19.1976 29.6094 17.5445 28.6125 16.9656 26.8406C16.3867 25.0688 14.6874 20.7414 14.6874 20.7414Z" fill="#8F00CD"/>
<path d="M6.9718 26.5063C6.9718 26.5063 6.62727 27.3922 6.84758 27.9336C7.0679 28.475 7.49446 28.4868 7.55071 28.9493C7.60696 29.4118 8.54133 29.518 8.54133 29.518L9.13586 28.6797L8.49524 27.3391L6.9718 26.5063Z" fill="#8F00CD"/>
<path d="M25.7874 19.9734C25.7289 19.9468 25.6629 19.9413 25.6007 19.9578C25.5085 19.9727 25.3882 20.0219 25.1968 20.2555C24.946 20.5609 24.9484 20.7242 24.7343 20.8562C24.6657 20.8985 24.5904 20.9289 24.5117 20.9461L23.2656 20.4437C23.1449 20.7088 23.0813 20.9963 23.0789 21.2875C23.0865 21.5131 23.1058 21.7381 23.1367 21.9617C23.6781 22.5758 24.3867 22.8781 24.8734 22.6703C25.2078 22.5281 25.3625 22.0539 25.6734 21.1078C25.7812 20.7875 25.9914 20.1031 25.7874 19.9734Z" fill="#FF59CF"/>
<path d="M24.0258 21.4328C24.1492 21.1273 24.4773 20.9211 24.4945 20.9125C24.5034 20.9072 24.5139 20.9055 24.524 20.9079C24.534 20.9102 24.5428 20.9163 24.5484 20.925C24.5511 20.9294 24.5529 20.9343 24.5537 20.9394C24.5545 20.9445 24.5542 20.9497 24.553 20.9547C24.5518 20.9597 24.5496 20.9644 24.5465 20.9686C24.5434 20.9728 24.5396 20.9763 24.5351 20.9789C24.5351 20.9789 24.2148 21.1805 24.1015 21.4625C24.0976 21.4725 24.0898 21.4806 24.0799 21.4849C24.0701 21.4893 24.0589 21.4895 24.0488 21.4855C24.0388 21.4816 24.0307 21.4738 24.0264 21.4639C24.022 21.4541 24.0218 21.4429 24.0258 21.4328Z" fill="#570B7F"/>
<path d="M23.7875 14.168C23.7875 14.168 24.1992 14.5336 24.3476 14.9109C24.496 15.2883 24.9593 15.6195 24.8945 15.8703C24.8296 16.1211 24.2374 16.1453 23.7859 15.425L23.1148 17.0031C23.1148 17.0031 22.5007 16.1047 22.4031 15.1625L23.7875 14.168Z" fill="#FF83DF"/>
<path d="M29.3414 15.5008C29.3414 15.5008 27.8195 15.6844 27.8453 16.0992C27.8711 16.5141 28.9226 16.5008 28.9226 16.5008L28.1062 18.5266C28.1062 18.5266 29.4344 18.1602 29.7383 17.4055C30.0422 16.6508 29.3414 15.5008 29.3414 15.5008Z" fill="#FF83DF"/>
<path d="M23.3366 11.5211C22.9915 11.3885 22.6257 11.3177 22.2561 11.3117C22.2457 11.3117 22.2358 11.3076 22.2285 11.3003C22.2212 11.2929 22.217 11.283 22.217 11.2726C22.2172 11.2623 22.2214 11.2525 22.2287 11.2452C22.236 11.238 22.2458 11.2338 22.2561 11.2336C22.6307 11.2364 23.0015 11.3084 23.3499 11.4461C23.358 11.4495 23.3647 11.4556 23.369 11.4634C23.3732 11.4712 23.3747 11.4802 23.3731 11.4889C23.3716 11.4976 23.3671 11.5055 23.3605 11.5114C23.3538 11.5172 23.3454 11.5206 23.3366 11.5211Z" fill="#570B7F"/>
<path d="M32.4999 13.3843C32.1006 13.2747 31.6852 13.2358 31.2725 13.2695C31.2622 13.2703 31.2519 13.267 31.244 13.2603C31.2361 13.2535 31.2312 13.2439 31.2303 13.2336C31.2295 13.2232 31.2328 13.2129 31.2396 13.205C31.2463 13.1971 31.2559 13.1922 31.2663 13.1914C31.2725 13.1914 31.9475 13.139 32.5116 13.307C32.5167 13.3078 32.5216 13.3095 32.526 13.3122C32.5303 13.3148 32.5342 13.3183 32.5372 13.3225C32.5403 13.3266 32.5425 13.3313 32.5437 13.3363C32.5449 13.3413 32.5452 13.3464 32.5444 13.3515C32.5436 13.3566 32.5419 13.3615 32.5392 13.3659C32.5366 13.3703 32.5331 13.3741 32.5289 13.3772C32.5248 13.3802 32.5201 13.3824 32.5151 13.3836C32.5101 13.3849 32.505 13.3851 32.4999 13.3843Z" fill="#570B7F"/>
<path d="M28.1881 4.03516C28.3376 4.10347 28.5056 4.11997 28.6655 4.08203C28.6547 4.14147 28.6219 4.19467 28.5737 4.23107C28.5255 4.26747 28.4653 4.2844 28.4052 4.27849C28.3451 4.27259 28.2894 4.24428 28.2492 4.1992C28.209 4.15412 28.1872 4.09556 28.1881 4.03516Z" fill="#570B7F"/>
<path d="M8.25846 29.5039C8.25275 29.5039 8.24711 29.5026 8.24194 29.5002C8.23678 29.4978 8.23221 29.4942 8.22856 29.4898C8.22491 29.4854 8.22226 29.4803 8.22082 29.4748C8.21937 29.4692 8.21915 29.4634 8.22018 29.4578C8.22878 29.4133 9.07956 24.9633 11.1796 22.0086C11.1856 22.0005 11.1946 21.9949 11.2046 21.9932C11.2147 21.9915 11.225 21.9936 11.2335 21.9992C11.2377 22.0022 11.2413 22.006 11.244 22.0103C11.2468 22.0147 11.2487 22.0195 11.2495 22.0246C11.2504 22.0297 11.2503 22.0349 11.2491 22.0399C11.248 22.045 11.2458 22.0497 11.2428 22.0539C9.1569 24.9945 8.30534 29.4274 8.29674 29.4719C8.29525 29.4809 8.29057 29.4891 8.28354 29.495C8.27652 29.5009 8.26762 29.504 8.25846 29.5039Z" fill="#570B7F"/>
<path d="M17.5202 28.039C16.1921 26.0547 16.3741 23.1484 16.3765 23.1172C16.3772 23.1068 16.382 23.0972 16.3898 23.0904C16.3977 23.0835 16.4079 23.0801 16.4183 23.0808C16.4286 23.0816 16.4383 23.0864 16.4451 23.0942C16.4519 23.1021 16.4553 23.1123 16.4546 23.1226C16.4546 23.1515 16.2694 26.0328 17.5851 27.9937C17.5911 28.0023 17.5934 28.013 17.5916 28.0233C17.5898 28.0336 17.5839 28.0428 17.5753 28.0488C17.5667 28.0548 17.5561 28.0572 17.5457 28.0553C17.5354 28.0535 17.5262 28.0476 17.5202 28.039Z" fill="#570B7F"/>
<path d="M13.5702 35.6672C13.5608 35.6673 13.5516 35.664 13.5444 35.6578C13.0029 35.1243 12.6262 34.4463 12.4593 33.7047C12.4581 33.6996 12.4579 33.6943 12.4588 33.6891C12.4597 33.6839 12.4616 33.6789 12.4644 33.6745C12.4672 33.67 12.4708 33.6661 12.4751 33.6631C12.4794 33.66 12.4842 33.6578 12.4894 33.6567C12.4945 33.6555 12.4998 33.6553 12.505 33.6562C12.5102 33.6571 12.5151 33.659 12.5196 33.6617C12.5241 33.6645 12.5279 33.6682 12.531 33.6725C12.534 33.6768 12.5362 33.6816 12.5374 33.6867C12.828 34.9188 13.5897 35.5899 13.5976 35.5961C13.6049 35.601 13.6104 35.6083 13.613 35.6168C13.6157 35.6252 13.6154 35.6343 13.6122 35.6426C13.6091 35.6508 13.6032 35.6578 13.5955 35.6622C13.5879 35.6667 13.579 35.6685 13.5702 35.6672Z" fill="#FFF3FF"/>
<path d="M20.9515 4.38362C21.8411 4.38362 22.5624 3.66238 22.5624 2.77268C22.5624 1.88298 21.8411 1.16174 20.9515 1.16174C20.0618 1.16174 19.3405 1.88298 19.3405 2.77268C19.3405 3.66238 20.0618 4.38362 20.9515 4.38362Z" fill="#F7E00B"/>
<path d="M19.5085 3.38906L20.9375 5.34688L22.4531 3.35938L19.5085 3.38906Z" fill="#F7E00B"/>
<path d="M20.9515 3.69375C21.4602 3.69375 21.8726 3.28136 21.8726 2.77266C21.8726 2.26395 21.4602 1.85156 20.9515 1.85156C20.4428 1.85156 20.0304 2.26395 20.0304 2.77266C20.0304 3.28136 20.4428 3.69375 20.9515 3.69375Z" fill="#FF9100"/>
<path d="M9.53271 19.718C10.236 19.718 10.8062 19.1478 10.8062 18.4445C10.8062 17.7412 10.236 17.1711 9.53271 17.1711C8.82941 17.1711 8.25928 17.7412 8.25928 18.4445C8.25928 19.1478 8.82941 19.718 9.53271 19.718Z" fill="#F7E00B"/>
<path d="M8.39209 18.932L9.521 20.4797L10.7194 18.9062L8.39209 18.932Z" fill="#F7E00B"/>
<path d="M9.5328 19.1734C9.93536 19.1734 10.2617 18.8471 10.2617 18.4445C10.2617 18.042 9.93536 17.7156 9.5328 17.7156C9.13024 17.7156 8.80389 18.042 8.80389 18.4445C8.80389 18.8471 9.13024 19.1734 9.5328 19.1734Z" fill="#FF9100"/>
</svg>
