<svg width="200" height="200" viewBox="0 0 200 200" fill="none" xmlns="http://www.w3.org/2000/svg">
<g clip-path="url(#clip0_6001_28830)">
<path d="M144.887 90.234H123.402V80.6992L125.108 79.7227L123.402 78.7461V69.8719L124.859 68.6918L123.402 67.8938V58.9844L124.078 57.9039L123.402 57.0078V48.0844L123.92 47.1617L123.402 46.1367V44.8863C123.402 42.1996 122.947 39.6172 122.11 37.2121C121.976 36.827 123.092 36.2758 122.939 35.9C122.828 35.6293 121.453 35.5312 121.332 35.2656C119.737 31.7434 117.295 28.6836 114.267 26.3477C113.788 25.9777 114.733 25.3742 114.225 25.0418C113.74 24.7242 111.803 24.6762 111.294 24.3945C107.944 22.5406 104.093 21.4844 100 21.4844C95.9072 21.4844 92.0565 22.5406 88.7061 24.3945C88.1561 24.6988 86.6717 24.6953 86.1498 25.0414C85.683 25.3508 86.176 26.0062 85.7334 26.3473C82.7053 28.6832 80.2631 31.743 78.6682 35.2652C78.5119 35.6102 77.2881 35.6461 77.1487 35.9996C77.0315 36.2965 77.9959 36.9094 77.8905 37.2121C77.0533 39.6172 76.5983 42.1996 76.5983 44.8863V46.1367L75.1666 47.1133L76.5983 48.0898V57.0078L75.4158 57.9844L76.5983 58.9609V67.875L75.5737 68.7582L76.5983 69.8281V78.7461L75.6569 79.9117L76.5983 80.6992V90.234H55.1139V80.743L55.7061 79.7227L55.1139 78.7461V69.8281L56.0799 68.8516L55.1139 67.875V58.9609L55.9428 57.8414L55.1139 57.0078V48.0898L56.1174 47.0453L55.1139 46.1367V44.8863C55.1139 42.273 55.3385 39.7109 55.769 37.2188C55.8256 36.8918 56.6643 36.5664 56.728 36.2422C56.792 35.9156 56.0803 35.5898 56.1514 35.2656C56.8319 32.1609 57.835 29.1758 59.1229 26.3469C59.2721 26.0195 60.0803 25.7637 60.2369 25.4406C60.3944 25.116 59.8998 24.7242 60.0647 24.4039C61.7225 21.1848 63.7584 18.1906 66.1131 15.4809C66.3662 15.1895 67.4565 15.0355 67.717 14.7508C68.0533 14.3828 67.5627 13.8867 67.9112 13.5301C71.4561 9.90352 75.6088 6.87305 80.2026 4.60625C80.8002 4.31133 82.1955 4.21094 82.8076 3.94219C83.7209 3.54141 83.8592 2.98867 84.8026 2.64844C89.5518 0.934375 94.669 0 100 0C105.338 0 110.461 0.936328 115.213 2.65352C116.108 2.97695 116.106 3.63203 116.974 4.01016C117.631 4.29609 119.164 4.29336 119.805 4.60938C124.396 6.87617 128.546 9.90508 132.089 13.5297C132.401 13.8496 131.943 14.4961 132.246 14.825C132.542 15.1465 133.6 15.1504 133.887 15.4805C136.239 18.1871 138.272 21.177 139.929 24.3914C140.088 24.7008 139.686 25.1832 139.838 25.4965C140.002 25.8328 140.72 26.0012 140.876 26.3426C142.162 29.168 143.165 32.1488 143.846 35.2492C143.913 35.5547 143.424 35.8605 143.485 36.168C143.553 36.5148 144.17 36.8637 144.231 37.2133C144.662 39.707 144.887 42.2711 144.887 44.8863V46.1367L144.127 47.1133L144.887 48.0898V57.0078L144.002 57.9844L144.887 58.9609V67.875L143.996 68.9559L144.887 69.8348V78.7461L144.102 79.9328L144.887 80.7121V90.234H144.887Z" fill="#7198B2"/>
<path d="M144.887 90.234H123.402V80.6992L125.108 79.7227L123.402 78.7461V69.8719L124.859 68.6918L123.402 67.8938V58.9844L124.078 57.9039L123.402 57.0078V48.0844L123.92 47.1617L123.402 46.1367V44.8863C123.402 42.1996 122.947 39.6172 122.11 37.2121C121.976 36.827 123.092 36.2758 122.939 35.9C122.828 35.6293 121.453 35.5312 121.332 35.2656C119.737 31.7434 117.295 28.6836 114.267 26.3477C113.788 25.9777 114.733 25.3742 114.225 25.0418C113.74 24.7242 111.803 24.6762 111.294 24.3945C107.944 22.5406 104.093 21.4844 100 21.4844C95.9072 21.4844 92.0565 22.5406 88.7061 24.3945C88.1561 24.6988 86.6717 24.6953 86.1498 25.0414C85.683 25.3508 86.176 26.0062 85.7334 26.3473C82.7053 28.6832 80.2631 31.743 78.6682 35.2652C78.5119 35.6102 77.2881 35.6461 77.1487 35.9996C77.0315 36.2965 77.9959 36.9094 77.8905 37.2121C77.0533 39.6172 76.5983 42.1996 76.5983 44.8863V46.1367L75.1666 47.1133L76.5983 48.0898V57.0078L75.4158 57.9844L76.5983 58.9609V67.875L75.5737 68.7582L76.5983 69.8281V78.7461L75.6569 79.9117L76.5983 80.6992V90.234H55.1139V80.743L55.7061 79.7227L55.1139 78.7461V69.8281L56.0799 68.8516L55.1139 67.875V58.9609L55.9428 57.8414L55.1139 57.0078V48.0898L56.1174 47.0453L55.1139 46.1367V44.8863C55.1139 42.273 55.3385 39.7109 55.769 37.2188C55.8256 36.8918 56.6643 36.5664 56.728 36.2422C56.792 35.9156 56.0803 35.5898 56.1514 35.2656C56.8319 32.1609 57.835 29.1758 59.1229 26.3469C59.2721 26.0195 60.0803 25.7637 60.2369 25.4406C60.3944 25.116 59.8998 24.7242 60.0647 24.4039C61.7225 21.1848 63.7584 18.1906 66.1131 15.4809C66.3662 15.1895 67.4565 15.0355 67.717 14.7508C68.0533 14.3828 67.5627 13.8867 67.9112 13.5301C71.4561 9.90352 75.6088 6.87305 80.2026 4.60625C80.8002 4.31133 82.1955 4.21094 82.8076 3.94219C83.7209 3.54141 83.8592 2.98867 84.8026 2.64844C89.5518 0.934375 94.669 0 100 0C105.338 0 110.461 0.936328 115.213 2.65352C116.108 2.97695 116.106 3.63203 116.974 4.01016C117.631 4.29609 119.164 4.29336 119.805 4.60938C124.396 6.87617 128.546 9.90508 132.089 13.5297C132.401 13.8496 131.943 14.4961 132.246 14.825C132.542 15.1465 133.6 15.1504 133.887 15.4805C136.239 18.1871 138.272 21.177 139.929 24.3914C140.088 24.7008 139.686 25.1832 139.838 25.4965C140.002 25.8328 140.72 26.0012 140.876 26.3426C142.162 29.168 143.165 32.1488 143.846 35.2492C143.913 35.5547 143.424 35.8605 143.485 36.168C143.553 36.5148 144.17 36.8637 144.231 37.2133C144.662 39.707 144.887 42.2711 144.887 44.8863V46.1367L144.127 47.1133L144.887 48.0898V57.0078L144.002 57.9844L144.887 58.9609V67.875L143.996 68.9559L144.887 69.8348V78.7461L144.102 79.9328L144.887 80.7121V90.234H144.887Z" fill="url(#paint0_linear_6001_28830)"/>
<path d="M76.5977 78.7461H55.1133V80.6992H76.5977V78.7461Z" fill="#ABDCDB"/>
<path d="M144.887 78.7461H123.402V80.6992H144.887V78.7461Z" fill="#ABDCDB"/>
<path d="M76.5977 67.875H55.1133V69.8281H76.5977V67.875Z" fill="#ABDCDB"/>
<path d="M144.887 67.875H123.402V69.8281H144.887V67.875Z" fill="#ABDCDB"/>
<path d="M76.5977 57.0078H55.1133V58.9609H76.5977V57.0078Z" fill="#ABDCDB"/>
<path d="M144.887 57.0078H123.402V58.9609H144.887V57.0078Z" fill="#ABDCDB"/>
<path d="M76.5977 46.1367H55.1133V48.0898H76.5977V46.1367Z" fill="#ABDCDB"/>
<path d="M144.887 46.1367H123.402V48.0898H144.887V46.1367Z" fill="#ABDCDB"/>
<path d="M78.668 35.2656C78.3789 35.9023 78.1211 36.5547 77.8906 37.2188H55.7734C55.8828 36.5625 56.0117 35.9102 56.1562 35.2656H78.668Z" fill="#ABDCDB"/>
<path d="M144.227 37.2188H122.109C121.879 36.5547 121.621 35.9023 121.332 35.2656H143.844C143.988 35.9102 144.117 36.5625 144.227 37.2188Z" fill="#ABDCDB"/>
<path d="M88.7109 24.3945C87.668 24.9688 86.6758 25.625 85.7383 26.3477H59.125C59.4219 25.6875 59.7383 25.0391 60.0703 24.3945H88.7109Z" fill="#ABDCDB"/>
<path d="M140.875 26.3477H114.262C113.324 25.625 112.332 24.9688 111.289 24.3945H139.93C140.262 25.0391 140.578 25.6875 140.875 26.3477Z" fill="#ABDCDB"/>
<path d="M133.887 15.4805H66.1133C66.6953 14.8125 67.2969 14.1602 67.918 13.5273H132.082C132.703 14.1602 133.305 14.8125 133.887 15.4805Z" fill="#ABDCDB"/>
<path d="M119.797 4.60938H80.2031C81.6875 3.875 83.2188 3.21875 84.793 2.65625H115.207C116.781 3.21875 118.312 3.875 119.797 4.60938Z" fill="#ABDCDB"/>
<path d="M172.478 200H150.208L149.04 199.564L147.81 200H134.537L132.821 199.605L131.479 200H115.866L114.565 199.597L113.755 200H92.6988L91.3066 199.559L90.5711 200H63.5641L61.2617 199.46L59.6492 200H36.1266L35.2039 199.414L34.1445 200H27.5219C23.7652 200 20.9496 196.56 21.6887 192.875L22.9477 186.606L23.9152 185.688L23.3328 184.688L28.9047 156.947L100 137.292L171.095 156.947L172.55 164.19L171.7 165.218L172.992 166.391L178.311 192.875C179.05 196.56 176.235 200 172.478 200Z" fill="url(#paint1_linear_6001_28830)"/>
<path d="M99.2383 150.047C97.3711 149.707 95.4844 149.715 93.6601 149.723C91.918 149.73 90.2734 149.738 88.6484 149.465C85.0898 148.875 82.5312 146.07 80.2773 142.746L78.2891 143.293C80.8672 147.207 83.8281 150.641 88.3281 151.391C90.1133 151.691 91.918 151.684 93.668 151.676C95.4844 151.668 97.1992 151.66 98.8867 151.969C102 152.535 105.152 154.855 105.035 157.754C104.93 160.43 102.152 162.426 99.4453 163.219C98.2344 163.574 96.9922 163.785 95.6797 164.008C93.8008 164.328 91.8633 164.66 90.0351 165.441C85.1211 167.543 82.3398 172.188 79.6445 176.676C77.3516 180.504 74.9766 184.465 71.3242 186.656C65.875 189.93 58.0078 188.16 54.4883 182.863C50.9687 177.566 52.3828 169.625 57.5156 165.867C58.4922 165.156 59.6562 164.488 60.7812 163.844C64.1523 161.914 67.6406 159.922 67.8867 155.949C68.1055 152.391 65.4766 150.047 62.9375 147.781C62.8672 147.719 62.8008 147.66 62.7305 147.598L60.4961 148.215C60.875 148.562 61.2578 148.902 61.6367 149.242C63.9297 151.285 66.0976 153.219 65.9375 155.828C65.7539 158.75 62.8711 160.402 59.8125 162.148C58.6406 162.82 57.4258 163.516 56.3594 164.293C50.4258 168.637 48.793 177.82 52.8633 183.941C55.5391 187.973 60.3945 190.238 65.1953 190.238C67.6914 190.238 70.1758 189.625 72.332 188.328C76.3984 185.887 78.9023 181.715 81.3203 177.68C83.9687 173.262 86.4726 169.09 90.8047 167.238C92.418 166.547 94.1601 166.25 96.0078 165.934C97.3164 165.711 98.6719 165.48 99.9922 165.094C103.121 164.176 106.832 161.727 106.988 157.832C107.152 153.723 103.117 150.754 99.2383 150.047Z" fill="#ABDCDB"/>
<path d="M114.23 188.551C109.699 181.613 100.121 177.484 94.1367 179.879C91.418 180.973 87.1484 184.379 89.1094 194.937C89.3984 196.477 89.8515 198.246 90.5742 200H92.6992C91.8476 198.152 91.3359 196.227 91.0312 194.582C89.7461 187.672 91.0742 183.215 94.8633 181.695C99.9765 179.645 108.594 183.496 112.598 189.617C114.043 191.828 115.719 195.695 113.754 200H115.859C117.238 196.316 116.715 192.348 114.23 188.551Z" fill="#ABDCDB"/>
<path d="M145.172 149.781L143.109 149.211C143.676 152.832 144.234 157.02 144.145 161.055C144.035 166.152 142.918 170.516 140.82 174.02C138.41 178.051 134.559 180.895 130.512 181.629C126.078 182.434 121.449 180.566 119.258 177.086C116.586 172.836 118.516 169.383 120.75 165.387C120.996 164.941 121.246 164.496 121.488 164.047C124.504 158.492 125.559 153.195 126.781 147.059L126.855 146.695C126.977 146.074 127.102 145.449 127.238 144.824L125.355 144.301C125.203 144.988 125.066 145.664 124.937 146.316L124.867 146.676C123.676 152.656 122.644 157.82 119.773 163.117C119.531 163.559 119.289 163.996 119.043 164.434C116.719 168.594 114.312 172.898 117.605 178.129C119.809 181.629 124.055 183.766 128.461 183.766C129.262 183.766 130.062 183.695 130.859 183.551C135.453 182.719 139.805 179.531 142.496 175.023C144.769 171.223 145.98 166.535 146.098 161.098C146.184 157.227 145.699 153.273 145.172 149.781Z" fill="#ABDCDB"/>
<path d="M61.6797 198.914C53.5976 194.223 40.0742 186.371 35.3515 194.281C34.3594 195.941 33.9687 197.937 34.1484 200H36.1289C35.9453 198.371 36.1758 196.715 37.0312 195.281C38.0703 193.539 39.7929 192.844 41.8945 192.844C46.9883 192.844 54.3242 196.918 59.6523 200H63.5586C62.9726 199.664 62.3437 199.301 61.6797 198.914Z" fill="#ABDCDB"/>
<path d="M148.664 198.063C144.934 194.559 138.984 195.035 135.035 197.324C133.738 198.078 132.559 198.984 131.473 200H134.523C135.004 199.641 135.5 199.313 136.016 199.016C137.672 198.055 139.738 197.457 141.766 197.457C143.805 197.457 145.805 198.059 147.328 199.488C147.504 199.652 147.668 199.824 147.816 200H150.219C149.805 199.305 149.289 198.652 148.664 198.063Z" fill="#ABDCDB"/>
<path d="M170.762 179.273C169.855 175.484 165.633 169.246 160.438 170.297C155.305 171.332 151.574 176.816 151.066 181.305C150.641 185.055 152.023 188.727 154.676 190.887C156.355 192.254 158.5 192.938 160.676 192.938C162.852 192.938 165.059 192.25 166.844 190.875C170.223 188.273 171.797 183.613 170.762 179.273ZM165.656 189.324C162.828 191.5 158.547 191.52 155.906 189.371C153.801 187.656 152.66 184.574 153.008 181.527C153.43 177.781 156.746 173.031 160.824 172.211C164.402 171.488 168.031 176.254 168.859 179.727C169.707 183.273 168.391 187.223 165.656 189.324Z" fill="#ABDCDB"/>
<path d="M172.555 164.211C170.594 163.559 168.77 162.672 167.266 161.648C165.477 160.43 162.262 157.312 159.441 153.723L156.395 152.883C159.699 157.574 164.012 161.797 166.164 163.266C168.063 164.559 170.441 165.664 172.992 166.402L172.555 164.211Z" fill="#ABDCDB"/>
<path d="M46.3008 152.137L44.3945 152.664C46.7344 157.766 45.4766 165.336 42.7227 170.098C40.3984 174.117 29.7969 185.355 23.7969 184.766C23.6367 184.75 23.4805 184.727 23.332 184.687L22.9453 186.605C23.1719 186.652 23.3945 186.688 23.6055 186.707C23.8086 186.727 24.0117 186.738 24.2187 186.738C31.4102 186.734 42.0742 175.121 44.4141 171.074C47.332 166.023 48.8242 157.98 46.3008 152.137Z" fill="#ABDCDB"/>
<path d="M171.095 156.947H28.9047L41.4855 94.2985C42.4344 89.5778 46.5832 86.1793 51.3992 86.1793H148.601C153.417 86.1793 157.566 89.5778 158.514 94.2985L171.095 156.947Z" fill="url(#paint2_linear_6001_28830)"/>
<path d="M126.886 165.484L117.025 144.436C119.854 140.79 121.541 136.217 121.541 131.246C121.541 119.349 111.897 109.705 100 109.705C88.1032 109.705 78.4586 119.349 78.4586 131.246C78.4586 136.217 80.1465 140.79 82.9747 144.436L73.1145 165.484C71.7614 168.371 73.8692 171.686 77.0586 171.686H91.5614H98.9969H101.003H107.291H122.942C126.131 171.686 128.239 168.371 126.886 165.484Z" fill="black"/>
<path d="M76.4516 86.0578H55.5696C55.0301 86.0578 54.593 85.6207 54.593 85.0812C54.593 84.5418 55.0301 84.1047 55.5696 84.1047H76.4516C76.9911 84.1047 77.4282 84.5418 77.4282 85.0812C77.4282 85.6207 76.9911 86.0578 76.4516 86.0578Z" fill="black"/>
<path d="M144.586 86.0578H123.704C123.164 86.0578 122.727 85.6207 122.727 85.0812C122.727 84.5418 123.164 84.1047 123.704 84.1047H144.586C145.125 84.1047 145.562 84.5418 145.562 85.0812C145.562 85.6207 145.125 86.0578 144.586 86.0578Z" fill="black"/>
</g>
<defs>
<linearGradient id="paint0_linear_6001_28830" x1="80.1384" y1="35.6796" x2="166.992" y2="77.5703" gradientUnits="userSpaceOnUse">
<stop stop-color="#8FBCBB"/>
<stop offset="1" stop-color="#5E81AC"/>
</linearGradient>
<linearGradient id="paint1_linear_6001_28830" x1="21.3478" y1="137.407" x2="81.4238" y2="251.42" gradientUnits="userSpaceOnUse">
<stop stop-color="#77D0CF"/>
<stop offset="1" stop-color="#5E81AC"/>
</linearGradient>
<linearGradient id="paint2_linear_6001_28830" x1="28.703" y1="86.3083" x2="104.098" y2="201.242" gradientUnits="userSpaceOnUse">
<stop stop-color="#77D0CF"/>
<stop offset="1" stop-color="#5E81AC"/>
</linearGradient>
<clipPath id="clip0_6001_28830">
<rect width="200" height="200" fill="white"/>
</clipPath>
</defs>
</svg>
