<svg width="40" height="40" viewBox="0 0 40 40" fill="none" xmlns="http://www.w3.org/2000/svg">
<g clip-path="url(#clip0_6066_1506)">
<path d="M8.24922 5.59469C8.34665 7.18961 7.1743 8.49148 6.90071 9.22391C6.84172 9.38195 6.69938 9.43742 6.52352 9.37078C5.76501 9.08305 4.05477 9.11781 2.93258 8.00984C1.03204 6.13437 3.04547 4.01094 4.82844 5.12836C5.16329 3.04883 8.08704 2.92953 8.24922 5.59469Z" fill="#EB2F96"/>
<path d="M38.6126 9.80422L35.66 9.32117C35.6919 9.07344 35.7102 8.82149 35.7102 8.56508C35.7102 7.55625 35.4553 6.60703 35.0068 5.77797L37.5789 4.25016C37.6817 4.18907 37.7156 4.05625 37.6544 3.95336C37.5935 3.85055 37.4605 3.81657 37.3577 3.87774L34.7855 5.40555C34.1267 4.37743 33.1565 3.56891 32.0073 3.11258L32.996 0.287894C33.0353 0.174925 32.9759 0.0514873 32.8629 0.0118779C32.7498 -0.0271065 32.6267 0.0319561 32.5869 0.14469L31.5993 2.96633C31.0451 2.79274 30.4556 2.69891 29.8442 2.69891C29.1982 2.69891 28.5775 2.80485 27.9962 2.99766L26.9381 0.198519C26.8958 0.0865654 26.7703 0.030081 26.6589 0.0725029C26.5471 0.114769 26.4906 0.239769 26.5329 0.351644L27.5902 3.14844C26.45 3.62344 25.4922 4.44789 24.85 5.48813L22.24 4.02407C22.1355 3.96524 22.0037 4.0025 21.9451 4.10696C21.8865 4.21133 21.9238 4.34328 22.028 4.4018L24.6368 5.86516C24.2168 6.67352 23.9781 7.59118 23.9781 8.56508C23.9781 11.8048 26.6044 14.4312 29.8442 14.4312C31.2197 14.4312 32.4837 13.9565 33.484 13.1636L35.4368 15.4332C35.4796 15.483 35.5403 15.5085 35.601 15.5085C35.6511 15.5085 35.7014 15.4913 35.7422 15.4561C35.8329 15.3781 35.8431 15.2414 35.765 15.1507L33.8139 12.883C34.7028 12.0654 35.3391 10.9773 35.5908 9.74875L38.5429 10.2317C38.5548 10.2336 38.5664 10.2345 38.578 10.2345C38.6823 10.2345 38.774 10.1591 38.7916 10.053C38.8108 9.93485 38.7307 9.82344 38.6126 9.80422Z" fill="#FFEC3D"/>
<path d="M19.1225 40C25.1802 40 30.0909 36.8151 30.0909 32.8863C30.0909 28.9574 25.1802 25.7725 19.1225 25.7725C13.0648 25.7725 8.15405 28.9574 8.15405 32.8863C8.15405 36.8151 13.0648 40 19.1225 40Z" fill="#EB2F96"/>
<path d="M19.744 31.3713C20.1572 31.0281 20.214 30.415 19.8709 30.0018C19.5277 29.5886 18.9146 29.5318 18.5014 29.875C18.0882 30.2181 18.0314 30.8313 18.3746 31.2444C18.7177 31.6576 19.3309 31.7144 19.744 31.3713Z" fill="#FFEC3D"/>
<path d="M13.6518 30.8445C13.7745 30.3217 13.4502 29.7983 12.9273 29.6756C12.4044 29.5529 11.8811 29.8772 11.7583 30.4001C11.6356 30.923 11.96 31.4463 12.4829 31.5691C13.0057 31.6918 13.5291 31.3674 13.6518 30.8445Z" fill="#FFEC3D"/>
<path d="M16.8432 28.2163C17.223 27.8365 17.223 27.2207 16.8432 26.841C16.4634 26.4612 15.8476 26.4612 15.4679 26.841C15.0881 27.2207 15.0881 27.8365 15.4679 28.2163C15.8476 28.5961 16.4634 28.5961 16.8432 28.2163Z" fill="#FFEC3D"/>
<path d="M16.8431 34.4046C17.2228 34.0248 17.2228 33.4091 16.8431 33.0293C16.4633 32.6495 15.8475 32.6495 15.4677 33.0293C15.088 33.4091 15.088 34.0248 15.4677 34.4046C15.8475 34.7844 16.4633 34.7844 16.8431 34.4046Z" fill="#FFEC3D"/>
<path d="M9.94468 34.4046C10.3245 34.0248 10.3245 33.409 9.94468 33.0292C9.5649 32.6495 8.94915 32.6495 8.56937 33.0292C8.18959 33.409 8.18959 34.0248 8.56937 34.4046C8.94915 34.7843 9.5649 34.7843 9.94468 34.4046Z" fill="#FFEC3D"/>
<path d="M26.2256 31.3105C26.6054 30.9307 26.6054 30.315 26.2256 29.9352C25.8458 29.5554 25.2301 29.5554 24.8503 29.9352C24.4705 30.315 24.4705 30.9307 24.8503 31.3105C25.2301 31.6903 25.8458 31.6903 26.2256 31.3105Z" fill="#FFEC3D"/>
<path d="M23.0369 27.7528C23.161 27.2302 22.8379 26.706 22.3153 26.5819C21.7927 26.4579 21.2685 26.7809 21.1444 27.3035C21.0204 27.8261 21.3434 28.3503 21.866 28.4744C22.3886 28.5985 22.9129 28.2754 23.0369 27.7528Z" fill="#FFEC3D"/>
<path d="M29.3634 34.6157C29.859 34.4086 30.0929 33.839 29.8858 33.3434C29.6787 32.8478 29.109 32.614 28.6135 32.8211C28.1179 33.0282 27.884 33.5978 28.0911 34.0934C28.2982 34.589 28.8679 34.8228 29.3634 34.6157Z" fill="#FFEC3D"/>
<path d="M23.0339 33.9389C23.1566 33.4161 22.8322 32.8927 22.3094 32.77C21.7865 32.6473 21.2632 32.9716 21.1404 33.4945C21.0177 34.0174 21.3421 34.5407 21.8649 34.6635C22.3878 34.7862 22.9112 34.4618 23.0339 33.9389Z" fill="#FFEC3D"/>
<path d="M20.0727 37.0177C20.187 36.4929 19.8543 35.9748 19.3295 35.8605C18.8047 35.7462 18.2866 36.079 18.1723 36.6038C18.058 37.1286 18.3908 37.6467 18.9156 37.761C19.4404 37.8753 19.9584 37.5425 20.0727 37.0177Z" fill="#FFEC3D"/>
<path d="M13.3938 37.4988C13.7736 37.119 13.7736 36.5032 13.3938 36.1235C13.0141 35.7437 12.3983 35.7437 12.0185 36.1235C11.6387 36.5032 11.6387 37.119 12.0185 37.4988C12.3983 37.8786 13.0141 37.8786 13.3938 37.4988Z" fill="#FFEC3D"/>
<path d="M17.1279 39.8837C16.4804 39.8057 15.8545 39.6909 15.2525 39.5437C15.3954 39.1863 15.7463 38.933 16.1555 38.933C16.6861 38.933 17.117 39.3575 17.1279 39.8837Z" fill="#FFEC3D"/>
<path d="M26.4866 37.0354C26.6106 36.5128 26.2876 35.9886 25.765 35.8645C25.2424 35.7405 24.7182 36.0635 24.5941 36.5861C24.47 37.1087 24.7931 37.633 25.3157 37.757C25.8383 37.8811 26.3625 37.558 26.4866 37.0354Z" fill="#FFEC3D"/>
<path d="M22.9924 39.5437C22.3904 39.6909 21.7645 39.8057 21.1169 39.8837C21.1277 39.3574 21.5587 38.933 22.0893 38.933C22.4987 38.933 22.8494 39.1864 22.9924 39.5437Z" fill="#FFEC3D"/>
<path d="M18.973 34.6559L13.2823 26.363H24.9626L19.272 34.6559C19.1999 34.7609 19.045 34.7609 18.973 34.6559Z" fill="#FFF4C2"/>
<path d="M25.4721 27.0848L19.1571 36.2866C19.1377 36.3169 19.1095 36.3169 19.0878 36.2866L12.7728 27.0848C12.6407 27.1454 12.5086 27.2104 12.3809 27.2753L18.7305 36.5313C18.8193 36.6612 18.9665 36.737 19.1224 36.737C19.2784 36.737 19.4256 36.6612 19.5144 36.5313L25.8641 27.2753C25.7362 27.2104 25.6041 27.1455 25.4721 27.0848Z" fill="black"/>
<path d="M19.1225 30.0482C25.8679 30.0482 31.3362 24.58 31.3362 17.8345C31.3362 11.0891 25.8679 5.62086 19.1225 5.62086C12.3771 5.62086 6.90881 11.0891 6.90881 17.8345C6.90881 24.58 12.3771 30.0482 19.1225 30.0482Z" fill="#FFD591"/>
<path d="M32.9 21.9073C34.592 21.6073 35.7204 19.9924 35.4204 18.3004C35.1203 16.6084 33.5055 15.48 31.8135 15.78C30.1215 16.0801 28.9931 17.695 29.2931 19.387C29.5931 21.079 31.208 22.2074 32.9 21.9073Z" fill="#FFD591"/>
<path d="M31.9031 20.5652C31.8604 20.5652 31.8173 20.5526 31.7796 20.5263C30.996 19.9811 30.8023 18.9 31.3473 18.1163C31.8926 17.3329 32.9733 17.1388 33.7573 17.6841C33.8554 17.7523 33.8797 17.8873 33.8114 17.9855C33.7429 18.0838 33.6075 18.1077 33.5098 18.0396C32.9223 17.631 32.1117 17.7764 31.7031 18.3638C31.2943 18.9514 31.4396 19.7621 32.0271 20.1709C32.1252 20.2391 32.1495 20.3741 32.0812 20.4723C32.0391 20.5328 31.9716 20.5652 31.9031 20.5652Z" fill="black"/>
<path d="M8.95805 19.3485C9.23679 17.6527 8.08804 16.0521 6.39226 15.7733C4.69647 15.4946 3.09581 16.6433 2.81707 18.3391C2.53834 20.0349 3.68708 21.6356 5.38287 21.9143C7.07865 22.193 8.67932 21.0443 8.95805 19.3485Z" fill="#FFD591"/>
<path d="M6.34162 20.5652C6.27311 20.5652 6.20561 20.5328 6.16358 20.4723C6.0953 20.3741 6.11959 20.2392 6.21772 20.1709C6.80522 19.762 6.95076 18.9513 6.54194 18.3638C6.13334 17.7761 5.32272 17.631 4.73498 18.0396C4.63709 18.1078 4.50194 18.0838 4.43342 17.9855C4.36514 17.8873 4.38944 17.7524 4.48756 17.6841C5.27131 17.1387 6.35225 17.3327 6.89772 18.1163C7.44272 18.9 7.24881 19.981 6.46522 20.5263C6.42756 20.5526 6.38436 20.5652 6.34162 20.5652Z" fill="black"/>
<path d="M14.5749 14.8767C14.7063 15.2989 14.0271 15.8856 13.0579 16.187C12.0887 16.4885 11.1966 16.3907 11.0653 15.9685C10.934 15.5463 11.6131 14.9597 12.5824 14.6582C13.5515 14.3567 14.4436 14.4545 14.5749 14.8767Z" fill="black"/>
<path d="M23.67 14.8767C23.5387 15.2989 24.2178 15.8856 25.187 16.187C26.1562 16.4885 27.0483 16.3907 27.1796 15.9685C27.3109 15.5463 26.6317 14.9597 25.6626 14.6582C24.6934 14.3567 23.8013 14.4545 23.67 14.8767Z" fill="black"/>
<path d="M19.1225 22.9123C18.4301 22.9123 17.8668 22.452 17.8668 21.8861C17.8668 21.3204 18.4302 20.8601 19.1225 20.8601C19.815 20.8601 20.3782 21.3204 20.3782 21.8861C20.3782 22.452 19.815 22.9123 19.1225 22.9123ZM19.1225 21.2932C18.6765 21.2932 18.2999 21.5648 18.2999 21.8861C18.2999 22.2076 18.6765 22.4791 19.1225 22.4791C19.5683 22.4791 19.945 22.2076 19.945 21.8861C19.945 21.5648 19.5684 21.2932 19.1225 21.2932Z" fill="black"/>
<path d="M12.8489 22.8282C11.2653 22.8282 9.97687 21.5399 9.97687 19.9561C9.97687 19.8365 10.0737 19.7395 10.1934 19.7395C10.3131 19.7395 10.41 19.8365 10.41 19.9561C10.41 21.3009 11.5041 22.3951 12.8489 22.3951C14.1937 22.3951 15.2878 21.3009 15.2878 19.9561C15.2878 19.8365 15.3847 19.7395 15.5044 19.7395C15.6241 19.7395 15.7209 19.8365 15.7209 19.9561C15.7209 21.5398 14.4326 22.8282 12.8489 22.8282Z" fill="black"/>
<path d="M25.3949 22.8282C23.8113 22.8282 22.5228 21.5399 22.5228 19.9561C22.5228 19.8365 22.6197 19.7395 22.7394 19.7395C22.8591 19.7395 22.956 19.8365 22.956 19.9561C22.956 21.3009 24.05 22.3951 25.3949 22.3951C26.7397 22.3951 27.8338 21.3009 27.8338 19.9561C27.8338 19.8365 27.9306 19.7395 28.0503 19.7395C28.17 19.7395 28.2669 19.8365 28.2669 19.9561C28.2668 21.5398 26.9785 22.8282 25.3949 22.8282Z" fill="black"/>
<path d="M21.7284 23.5778C22.0623 23.5778 22.3041 23.887 22.2377 24.2142C21.9429 25.6649 20.6602 26.7567 19.1224 26.7567C17.5847 26.7567 16.302 25.6649 16.0072 24.2142C15.9407 23.887 16.1826 23.5778 16.5164 23.5778H21.7284Z" fill="white"/>
<path d="M31.1902 15.9391C30.5026 11.2241 26.8138 7.16188 22.192 6.01C21.6481 5.86774 21.0874 5.76524 20.5162 5.70039C20.443 5.69204 20.3697 5.68368 20.2945 5.67735C20.2485 5.6711 20.2046 5.66899 20.1585 5.66485C20.1047 5.65891 20.0489 5.65508 19.9932 5.65289C20.0599 5.57454 20.125 5.49157 20.1856 5.39922C20.5698 4.81336 20.6514 4.18758 20.3676 4.00149C20.0839 3.8154 19.5424 4.13954 19.1582 4.72539C19.145 4.74555 19.135 4.76594 19.1224 4.78618C19.1099 4.76594 19.0999 4.74563 19.0867 4.72539C18.7025 4.13954 18.161 3.8154 17.8774 4.00149C17.5937 4.18758 17.6752 4.81336 18.0595 5.39922C18.1199 5.49141 18.185 5.5743 18.2516 5.65258C18.1991 5.65618 18.1465 5.65961 18.0957 5.66485C15.7499 5.8511 13.4789 6.74961 11.6247 8.19422C9.15604 10.1169 7.44471 12.9684 7.01581 16.2216C8.25018 16.0229 10.0075 14.732 11.5034 12.801C11.8465 12.3565 12.1508 11.9088 12.4196 11.466C12.3467 12.0092 12.4393 12.4355 12.7249 12.6567C13.4655 13.2305 15.2114 12.2168 16.6244 10.3927C16.7073 10.2859 16.7864 10.1784 16.8632 10.071C16.0528 11.4971 15.8344 12.8024 16.4185 13.2549C17.1592 13.8287 18.905 12.815 20.3181 10.9909C20.3326 10.9722 20.3457 10.9533 20.36 10.9345C20.1313 11.732 20.1794 12.3679 20.5517 12.6566C21.2924 13.2298 23.0392 12.2152 24.4514 10.393C24.6271 10.167 24.7904 9.93477 24.9389 9.7068C24.941 9.70258 24.9431 9.70055 24.9453 9.69633C25.3135 10.6649 25.9243 11.7466 26.7424 12.801C28.2361 14.732 29.9935 16.0229 31.2299 16.2216C31.2174 16.1274 31.2048 16.0333 31.1902 15.9391Z" fill="black"/>
<path d="M12.4035 11.8166C12.3644 11.8166 12.3249 11.8061 12.2892 11.7838C12.1877 11.7205 12.1567 11.587 12.22 11.4854L13.991 8.64672C14.0542 8.54539 14.1875 8.5143 14.2895 8.57758C14.391 8.64094 14.4219 8.77446 14.3586 8.87602L12.5876 11.7147C12.5465 11.7805 12.4759 11.8166 12.4035 11.8166Z" fill="black"/>
<path d="M16.6242 10.6092C16.5872 10.6092 16.5495 10.5997 16.5153 10.5796C16.4119 10.5194 16.3772 10.3867 16.4375 10.2834L17.6804 8.15532C17.7406 8.05219 17.8733 8.01711 17.9765 8.07758C18.0799 8.13782 18.1146 8.27047 18.0543 8.37375L16.8114 10.5019C16.7712 10.5709 16.6987 10.6092 16.6242 10.6092Z" fill="black"/>
<path d="M20.3591 11.1535C20.3268 11.1535 20.2938 11.1463 20.2627 11.1308C20.1557 11.0773 20.1122 10.9473 20.1656 10.8403L21.2505 8.66477C21.3038 8.55789 21.4337 8.51438 21.5409 8.56758C21.6479 8.62102 21.6915 8.75102 21.638 8.85805L20.553 11.0336C20.5152 11.1096 20.4387 11.1535 20.3591 11.1535Z" fill="black"/>
<path d="M25.3949 10.9163C25.3078 10.9163 25.2255 10.863 25.1925 10.7768L24.4535 8.8386C24.411 8.7268 24.4671 8.60164 24.5787 8.55899C24.6902 8.51633 24.8156 8.5725 24.8583 8.68422L25.5972 10.6224C25.6397 10.7342 25.5837 10.8594 25.472 10.902C25.4467 10.9116 25.4204 10.9163 25.3949 10.9163Z" fill="black"/>
<path d="M35.1772 36.5618H29.7101C29.1276 36.5618 28.6555 36.0896 28.6555 35.5072V26.8272C28.6555 26.2448 29.1277 25.7726 29.7101 25.7726H35.1772C35.7597 25.7726 36.2318 26.2448 36.2318 26.8272V35.5071C36.2318 36.0896 35.7596 36.5618 35.1772 36.5618Z" fill="#18AAA1"/>
<path d="M34.8719 32.0352H30.0154C29.9208 32.0352 29.8441 31.9584 29.8441 31.8638V30.4705C29.8441 30.3759 29.9208 30.2991 30.0154 30.2991H34.8719C34.9665 30.2991 35.0432 30.3759 35.0432 30.4705V31.8638C35.0432 31.9584 34.9665 32.0352 34.8719 32.0352Z" fill="white"/>
<path d="M34.8719 34.8863H30.0154C29.9208 34.8863 29.8441 34.8095 29.8441 34.7149V33.3216C29.8441 33.227 29.9208 33.1502 30.0154 33.1502H34.8719C34.9665 33.1502 35.0432 33.227 35.0432 33.3216V34.7149C35.0432 34.8095 34.9665 34.8863 34.8719 34.8863Z" fill="white"/>
<path d="M34.8719 29.1841H30.0154C29.9208 29.1841 29.8441 29.1074 29.8441 29.0128V27.6195C29.8441 27.5248 29.9208 27.4481 30.0154 27.4481H34.8719C34.9665 27.4481 35.0432 27.5248 35.0432 27.6195V29.0128C35.0432 29.1074 34.9665 29.1841 34.8719 29.1841Z" fill="white"/>
<path d="M6.08779 37.7675C8.78363 37.7675 10.969 35.5821 10.969 32.8863C10.969 30.1904 8.78363 28.005 6.08779 28.005C3.39195 28.005 1.20654 30.1904 1.20654 32.8863C1.20654 35.5821 3.39195 37.7675 6.08779 37.7675Z" fill="#FFEC3D"/>
<path d="M4.19113 33.8772C4.33371 34.1501 4.22809 34.487 3.95512 34.6295C3.68223 34.7721 3.34535 34.6665 3.20277 34.3936C3.0602 34.1207 3.16582 33.7838 3.43879 33.6413C3.71168 33.4987 4.04856 33.6043 4.19113 33.8772Z" fill="black"/>
<path d="M8.97275 31.379C9.11533 31.6519 9.0097 31.9888 8.73673 32.1313C8.46384 32.2739 8.12697 32.1683 7.98439 31.8954C7.84181 31.6225 7.94744 31.2856 8.22041 31.1431C8.49337 31.0005 8.83017 31.1061 8.97275 31.379Z" fill="black"/>
<path d="M6.22549 34.5127C5.73228 34.5127 5.25541 34.2453 5.01158 33.7788C4.95642 33.6729 4.99744 33.542 5.10338 33.4866C5.20916 33.4316 5.34025 33.4721 5.39564 33.5783C5.51111 33.7994 5.70564 33.9623 5.94384 34.0369C6.18197 34.1113 6.4347 34.0888 6.65595 33.9735C7.11236 33.735 7.28978 33.1697 7.05119 32.7131C6.99603 32.6072 7.03705 32.4763 7.14299 32.4209C7.2483 32.3658 7.37986 32.4065 7.43525 32.5127C7.78424 33.1808 7.52447 34.0083 6.85642 34.3573C6.65486 34.4627 6.43869 34.5127 6.22549 34.5127Z" fill="black"/>
</g>
<defs>
<clipPath id="clip0_6066_1506">
<rect width="40" height="40" fill="white"/>
</clipPath>
</defs>
</svg>
