<svg width="40" height="40" viewBox="0 0 40 40" fill="none" xmlns="http://www.w3.org/2000/svg">
<g clip-path="url(#clip0_6066_1912)">
<path d="M25.9386 28.0559L18.3329 26.5913L10.7272 28.0559L9.82753 30.5984L9.70746 31.6672L9.43082 31.7194L8.87097 33.3018L10.8698 36.0555L15.6103 35.393L15.9631 34.3211L16.2301 33.0734L16.3597 33.4109H18.1375L18.3329 33.1582L18.5282 33.4109H20.3118L20.5735 32.9338L20.7039 34.3246L21.0555 35.393L25.168 35.7433L27.795 33.3018L27.2301 31.7055L27.0014 31.4478L26.8336 30.5852L25.9386 28.0559Z" fill="#13C2C2"/>
<path d="M9.83203 30.5859V34.6258L9.44141 34.0875V31.6898L9.83203 30.5859Z" fill="#F7FFFF"/>
<path d="M12.0062 27.8094V35.8969L11.6156 35.9516V27.8844L12.0062 27.8094Z" fill="#F7FFFF"/>
<path d="M14.1804 27.3906V35.593L13.7898 35.6476V27.4656L14.1804 27.3906Z" fill="#F7FFFF"/>
<path d="M16.3539 26.9726V33.4109H16.2625L15.9633 34.3203V27.0476L16.3539 26.9726Z" fill="#F7FFFF"/>
<path d="M18.5281 26.6289V33.4109H18.1375V26.6289L18.3328 26.5914L18.5281 26.6289Z" fill="#F7FFFF"/>
<path d="M20.7024 27.0476V34.3203L20.4032 33.4109H20.3118V26.9726L20.7024 27.0476Z" fill="#F7FFFF"/>
<path d="M22.8766 27.4664V35.5476L22.486 35.5148V27.3906L22.8766 27.4664Z" fill="#F7FFFF"/>
<path d="M25.05 27.8844V35.7328L24.6594 35.7V27.8094L25.05 27.8844Z" fill="#F7FFFF"/>
<path d="M27.2242 31.6898V33.832L26.8336 34.1945V30.5859L27.2242 31.6898Z" fill="#F7FFFF"/>
<path d="M15.6103 35.393L14.2679 39.4686C14.1399 39.8566 13.7331 40.079 13.3387 39.9741L7.09009 38.3359C6.10001 38.1115 5.5547 37.09 5.83579 36.2488C6.12524 35.393 7.21181 34.9085 8.14103 35.3637L8.87095 33.3018L15.6103 35.393Z" fill="#FFD591"/>
<path d="M21.0555 35.393L22.398 39.4686C22.5259 39.8566 22.9328 40.079 23.3272 39.9741L29.5758 38.3359C30.5658 38.1115 31.1112 37.09 30.8301 36.2488C30.5405 35.393 29.4541 34.9085 28.5248 35.3637L27.7949 33.3018L21.0555 35.393Z" fill="#FFD591"/>
<path d="M24.6274 24.3477L25.9383 28.0555H10.7274L12.0384 24.3477C10.9915 24.1273 9.84226 23.7437 8.67351 23.1008L7.90796 19.6592L10.8391 16.9758C11.0173 17.1211 11.211 17.2602 11.4196 17.3906C12.4157 18.0141 13.4118 18.2305 14.1829 18.2844L14.186 18.275H22.4798L22.4829 18.2844C23.254 18.2305 24.2501 18.0141 25.2462 17.3906C25.4555 17.2594 25.6493 17.1195 25.8266 16.975L28.2663 19.001L27.9922 23.1008C26.8243 23.743 25.6743 24.1273 24.6274 24.3477Z" fill="#FFEC3D"/>
<path d="M18.3329 27.2178C18.6789 27.2178 18.9594 26.9373 18.9594 26.5913C18.9594 26.2453 18.6789 25.9648 18.3329 25.9648C17.9869 25.9648 17.7064 26.2453 17.7064 26.5913C17.7064 26.9373 17.9869 27.2178 18.3329 27.2178Z" fill="#13C2C2"/>
<path d="M18.3329 24.8521C18.6789 24.8521 18.9594 24.5716 18.9594 24.2256C18.9594 23.8796 18.6789 23.5991 18.3329 23.5991C17.9869 23.5991 17.7064 23.8796 17.7064 24.2256C17.7064 24.5716 17.9869 24.8521 18.3329 24.8521Z" fill="#13C2C2"/>
<path d="M24.563 24.557C24.481 24.557 24.4046 24.5049 24.3775 24.4228L23.4199 21.5195C23.3861 21.4171 23.4417 21.3066 23.5442 21.2729C23.6469 21.2389 23.7571 21.2948 23.7909 21.3972L24.7485 24.3005C24.7823 24.403 24.7267 24.5134 24.6242 24.5471C24.6039 24.5538 24.5832 24.557 24.563 24.557Z" fill="black"/>
<path d="M12.1027 24.557C12.0825 24.557 12.0618 24.5538 12.0415 24.5471C11.939 24.5134 11.8835 24.4029 11.9172 24.3005L12.8748 21.3972C12.9086 21.2948 13.0188 21.239 13.1214 21.2729C13.2239 21.3066 13.2795 21.4171 13.2457 21.5195L12.2882 24.4228C12.2611 24.5049 12.1847 24.557 12.1027 24.557Z" fill="black"/>
<path d="M22.5203 17.7852L18.3329 18.8927L14.1455 17.7852C14.1455 17.7852 12.0654 20.4807 14.4426 21.8604C16.053 22.795 17.5405 21.1741 18.3328 20.0311C19.1251 21.1741 20.6127 22.795 22.223 21.8604C24.6003 20.4808 22.5203 17.7852 22.5203 17.7852Z" fill="#13C2C2"/>
<path d="M25.796 8.80094C25.796 7.40656 24.6656 6.27617 23.2712 6.27617C22.1605 6.27617 21.2179 6.99383 20.8801 7.99055C20.1023 7.64149 19.2407 7.4457 18.3329 7.4457C17.4251 7.4457 16.5635 7.64149 15.7856 7.99055C15.4479 6.99383 14.5053 6.27617 13.3945 6.27617C12.0001 6.27617 10.8698 7.40656 10.8698 8.80094C10.8698 9.92297 11.6019 10.8735 12.6143 11.2023C12.2858 11.9607 12.1027 12.7967 12.1027 13.6759C12.1027 17.1166 14.892 19.906 18.3329 19.906C21.7737 19.906 24.563 17.1166 24.563 13.6759C24.563 12.7967 24.38 11.9607 24.0515 11.2023C25.0639 10.8734 25.796 9.92289 25.796 8.80094Z" fill="#FFD591"/>
<path d="M14.9266 11.6455C15.0245 11.8446 14.7877 12.1615 14.3977 12.3534C14.0077 12.5453 13.612 12.5395 13.5141 12.3405C13.4163 12.1414 13.653 11.8245 14.043 11.6327C14.433 11.4407 14.8286 11.4465 14.9266 11.6455Z" fill="black"/>
<path d="M21.7392 11.6455C21.6414 11.8446 21.8781 12.1615 22.2681 12.3534C22.6581 12.5453 23.0538 12.5395 23.1517 12.3405C23.2496 12.1414 23.0128 11.8245 22.6228 11.6327C22.2327 11.4407 21.8371 11.4465 21.7392 11.6455Z" fill="black"/>
<path d="M19.6971 15.2351C19.5892 15.2351 19.5018 15.3225 19.5018 15.4304C19.5018 15.6988 19.2834 15.9172 19.015 15.9172C18.7559 15.9172 18.5439 15.7135 18.5296 15.4578L19.0943 14.6878C19.1759 14.5766 19.0965 14.42 18.9586 14.42H17.707C17.5692 14.42 17.4897 14.5766 17.5713 14.6878L18.136 15.4577C18.1217 15.7134 17.9097 15.9171 17.6506 15.9171C17.3821 15.9171 17.1637 15.6987 17.1637 15.4303C17.1637 15.3224 17.0763 15.235 16.9684 15.235C16.8605 15.235 16.7731 15.3224 16.7731 15.4303C16.7731 15.9141 17.1667 16.3077 17.6506 16.3077C17.9259 16.3077 18.1717 16.18 18.3327 15.981C18.4937 16.18 18.7395 16.3077 19.0148 16.3077C19.4986 16.3077 19.8922 15.9141 19.8922 15.4303C19.8924 15.3225 19.805 15.2351 19.6971 15.2351Z" fill="black"/>
<path d="M15.2199 14.2972C15.6498 14.2972 15.9982 13.9487 15.9982 13.5189C15.9982 13.0891 15.6498 12.7406 15.2199 12.7406C14.7901 12.7406 14.4417 13.0891 14.4417 13.5189C14.4417 13.9487 14.7901 14.2972 15.2199 14.2972Z" fill="black"/>
<path d="M21.446 14.2972C21.8758 14.2972 22.2243 13.9487 22.2243 13.5189C22.2243 13.0891 21.8758 12.7406 21.446 12.7406C21.0162 12.7406 20.6677 13.0891 20.6677 13.5189C20.6677 13.9487 21.0162 14.2972 21.446 14.2972Z" fill="black"/>
<path d="M14.6281 8.66719C14.1094 9.05 13.6531 9.5125 13.2766 10.0359C12.6469 9.97656 12.1539 9.4461 12.1539 8.80078C12.1539 8.11563 12.7094 7.56016 13.3946 7.56016C14.0344 7.56016 14.561 8.04453 14.6281 8.66719Z" fill="#E4B66A"/>
<path d="M24.5117 8.80078C24.5117 9.4461 24.0187 9.97656 23.389 10.0359C23.0125 9.5125 22.5562 9.05 22.0375 8.66719C22.1047 8.04453 22.6312 7.56016 23.2711 7.56016C23.9562 7.56016 24.5117 8.11563 24.5117 8.80078Z" fill="#E4B66A"/>
<path d="M32.9817 17.2554C32.9706 17.1382 32.9503 17.0177 32.9236 16.8955C32.8092 16.3708 32.5532 15.8087 32.1671 15.2769C32.0781 15.1541 31.9834 15.0327 31.8806 14.9141C31.7946 14.8151 31.7059 14.7211 31.6156 14.6312C31.3079 14.3245 30.9782 14.071 30.6449 13.8772C30.4324 13.7535 30.2185 13.6535 30.008 13.5797C29.3049 13.3341 28.6431 13.3741 28.2021 13.757C28.1822 13.7737 28.1638 13.7903 28.1464 13.8086C28.1339 13.8202 28.1223 13.8327 28.1106 13.8444C28.07 13.8874 28.0328 13.933 27.9988 13.9819C27.8712 14.0922 27.7681 14.2234 27.6938 14.3742C27.6837 14.3961 27.6735 14.418 27.6642 14.4406C27.6579 14.4555 27.6517 14.4711 27.6462 14.4859C27.3892 15.1312 26.8548 16.1422 25.8267 16.975L27.9923 23.1008C28.1946 22.9906 28.3962 22.8727 28.5993 22.7453C30.5704 21.5109 31.847 19.9336 32.6556 18.5664C32.7524 18.4477 32.8278 18.3145 32.8824 18.168C32.9816 17.9012 33.0136 17.5902 32.9817 17.2554Z" fill="#FFD591"/>
<path d="M29.911 9.88281C29.8376 9.98203 29.7657 10.0844 29.69 10.1922C29.5048 10.4578 29.3126 10.7313 29.0782 10.9555C28.8064 11.2148 28.5923 11.5359 28.4571 11.8844C28.3626 12.1289 28.2978 12.4086 28.2587 12.7398C28.2267 13.0117 28.2165 13.2875 28.2282 13.5633C28.1735 13.5563 28.1704 13.6977 28.1267 13.7367C28.104 13.757 27.89 13.7992 27.8548 13.8469C27.8212 13.4617 27.8267 13.075 27.8712 12.6945C27.9142 12.3297 27.986 12.0188 28.0931 11.743C28.2485 11.3414 28.4954 10.9719 28.8087 10.6734C29.015 10.4758 29.1954 10.218 29.3696 9.96875C29.4439 9.8625 29.5212 9.75234 29.5985 9.64844C29.6634 9.5625 29.786 9.54453 29.872 9.60938C29.9587 9.67422 29.9759 9.79688 29.911 9.88281Z" fill="#13C2C2"/>
<path d="M32.1509 24.7961C32.1228 24.8766 32.0478 24.9273 31.9665 24.9273C31.9454 24.9273 31.9236 24.9234 31.9025 24.9164C31.8009 24.8805 31.747 24.7695 31.7822 24.6672C32.2806 23.2359 32.2579 21.6023 31.7197 20.1852C31.6025 19.8758 31.4673 19.5461 31.3009 19.2375C31.3782 19.2461 31.4426 19.0392 31.5177 19.0392C31.5888 19.0392 31.672 19.2461 31.7407 19.2391C31.8743 19.5086 31.9861 19.7852 32.0853 20.0469C32.6548 21.5484 32.679 23.2789 32.1509 24.7961Z" fill="#13C2C2"/>
<path d="M34.8717 0.604922C32.6891 -0.647265 29.9047 0.107032 28.6525 2.28961C27.5166 4.26961 27.1394 8.30055 28.7087 9.96672L28.5911 10.0198L27.6884 10.4268C27.5702 10.4801 27.5622 10.6449 27.6747 10.7095L28.728 11.3137L29.7814 11.918C29.8939 11.9826 30.0321 11.8925 30.0184 11.7635L29.9142 10.7788L29.9006 10.6506C32.131 11.1644 35.4205 8.80422 36.5564 6.82422C37.8086 4.64156 37.0543 1.85711 34.8717 0.604922Z" fill="#EB2F96"/>
<path d="M29.9006 10.8461C29.8751 10.8461 29.8492 10.8411 29.8242 10.8305C29.6166 10.7421 29.4122 10.6412 29.2167 10.5305C29.001 10.4083 28.7908 10.2714 28.592 10.1236C28.5056 10.0592 28.4875 9.93687 28.5519 9.85031C28.6161 9.76375 28.7385 9.7457 28.8252 9.81015C29.011 9.94836 29.2075 10.0763 29.4092 10.1905C29.592 10.2941 29.7831 10.3884 29.9773 10.4711C30.0765 10.5133 30.1227 10.628 30.0805 10.7273C30.0488 10.8015 29.9765 10.8461 29.9006 10.8461Z" fill="black"/>
<path d="M34.8053 5.18375C34.2516 3.43961 32.3364 5.02422 32.3364 5.02422C32.3364 5.02422 32.7373 2.5707 30.9526 2.97297C29.1245 3.385 30.5363 6.82648 30.8213 7.47719C30.8492 7.54086 30.9151 7.57867 30.9841 7.57062C31.6894 7.4882 35.3724 6.97016 34.8053 5.18375Z" fill="white"/>
<path d="M32.7573 18.7477C32.8316 18.6695 32.8276 18.5469 32.7494 18.4726C32.6713 18.3983 32.5468 18.4024 32.4726 18.4806C32.4658 18.4863 32.4596 18.4925 32.4537 18.4991C32.4333 18.522 32.409 18.5459 32.3811 18.5701L32.3719 18.578C31.7674 19.0923 30.6844 18.8754 29.7084 18.1257L30.6521 17.3688C30.7362 17.3013 30.7497 17.1784 30.6822 17.0943C30.6147 17.0102 30.4919 16.9966 30.4076 17.0641L29.4026 17.8702C29.2556 17.7366 29.1127 17.5909 28.9761 17.4334C28.7669 17.1923 28.587 16.9402 28.4371 16.6855L29.4348 15.8852C29.519 15.8177 29.5325 15.6948 29.465 15.6107C29.3974 15.5266 29.2747 15.513 29.1904 15.5805L28.2501 16.3346C27.8053 15.4009 27.7775 14.4823 28.2507 13.9805L28.2586 13.9723C28.2655 13.9651 28.2726 13.9577 28.2844 13.9464C28.2993 13.9315 28.3148 13.9175 28.3311 13.903C28.4119 13.8316 28.4195 13.7082 28.3481 13.6273C28.2767 13.5466 28.1533 13.5389 28.0725 13.6104C28.05 13.6302 28.0289 13.6496 28.0129 13.6657C28.0006 13.6773 27.9886 13.6896 27.977 13.7017L27.9683 13.7107C27.1554 14.5729 27.4618 16.2833 28.681 17.6895C29.5487 18.6898 30.6311 19.25 31.5306 19.2499C31.9489 19.2498 32.3277 19.1287 32.6267 18.8743L32.6357 18.8665C32.6751 18.8322 32.7088 18.7995 32.7386 18.7666C32.7449 18.7606 32.7508 18.7545 32.7568 18.7483L32.7573 18.7477Z" fill="black"/>
<path d="M10.8392 16.9758L8.67354 23.1008C8.47198 22.9906 8.26964 22.8727 8.06651 22.7453C4.96339 20.8016 3.58136 18.0109 3.03292 16.5195C2.60269 15.3468 2.91128 14.083 3.72269 13.2389C3.76339 13.1966 3.88394 13.2691 3.92706 13.2289C3.98487 13.1752 3.9662 13.0098 4.02839 12.9602C4.28683 12.7541 4.58222 12.5852 4.9094 12.4648C5.05573 12.4111 5.20355 12.3688 5.35175 12.3377C5.41894 12.3235 5.49917 12.5017 5.56644 12.4921C5.6323 12.4827 5.68526 12.2853 5.75104 12.2801C7.12776 12.1713 8.46456 12.9816 8.96409 14.3414C9.19542 14.9727 9.73136 16.0781 10.8392 16.9758Z" fill="#FFD591"/>
<path d="M6.36541 17.5828C7.2174 17.5828 7.90807 16.8921 7.90807 16.0402C7.90807 15.1882 7.2174 14.4975 6.36541 14.4975C5.51342 14.4975 4.82275 15.1882 4.82275 16.0402C4.82275 16.8921 5.51342 17.5828 6.36541 17.5828Z" fill="#E4B66A"/>
<path d="M6.16111 13.7273C6.13533 13.7383 6.10955 13.7438 6.08377 13.7438C6.00798 13.7438 5.93611 13.6992 5.90408 13.6258L5.35408 12.3477C5.35251 12.3445 5.35173 12.3414 5.35095 12.3383C5.48376 12.3102 5.61736 12.2906 5.75017 12.2805L6.26267 13.4711C6.30564 13.5695 6.25955 13.6852 6.16111 13.7273Z" fill="black"/>
<path d="M4.47124 14.4781C4.44624 14.4891 4.41968 14.4938 4.3939 14.4938C4.3189 14.4938 4.24624 14.45 4.21499 14.3758L3.72437 13.2383C3.8189 13.1391 3.92124 13.0461 4.02983 12.9602L4.57358 14.2211C4.61577 14.3203 4.57046 14.4352 4.47124 14.4781Z" fill="black"/>
</g>
<defs>
<clipPath id="clip0_6066_1912">
<rect width="40" height="40" fill="white"/>
</clipPath>
</defs>
</svg>
