<svg width="41" height="30" viewBox="0 0 41 30" fill="none" xmlns="http://www.w3.org/2000/svg">
<path d="M9.30593 25.8476C9.32078 25.9962 9.26132 26.1448 9.14882 26.2424C9.11273 26.2742 9.07242 26.2998 9.02781 26.3188C8.17015 26.6861 6.1089 27.4015 4.31296 26.6861C2.51703 25.9728 1.50867 24.0389 1.13929 23.1813C1.12023 23.1367 1.10749 23.0901 1.1032 23.0434C1.08835 22.8948 1.14781 22.7462 1.26031 22.6485C1.2964 22.6166 1.33679 22.5912 1.38132 22.5721C2.23898 22.2048 4.30023 21.4894 6.09617 22.2048C7.8921 22.9181 8.90046 24.852 9.26976 25.7097C9.2889 25.7541 9.30164 25.8009 9.30593 25.8476Z" fill="#13C2C2"/>
<path d="M6.09613 22.2044C7.89206 22.9185 8.90011 24.8529 9.27034 25.7097C9.37214 25.9453 9.26409 26.2171 9.02823 26.3185C8.17066 26.6871 6.10956 27.401 4.31363 26.6868C2.51769 25.9727 1.50964 24.0383 1.13941 23.1815C1.03753 22.9459 1.14566 22.6741 1.38152 22.5728C2.23909 22.2042 4.30019 21.4903 6.09613 22.2044Z" fill="#13C2C2"/>
<path d="M9.30593 25.8476C9.32078 25.9962 9.26132 26.1448 9.14882 26.2424L1.1032 23.0433C1.08835 22.8947 1.14781 22.7461 1.26031 22.6484L9.30593 25.8476Z" fill="black"/>
<path d="M9.0966 25.6633C9.02753 25.6633 8.9598 25.6297 8.91917 25.5677C8.05949 24.2615 7.39027 22.842 6.93003 21.3484C6.45261 19.7989 6.20636 18.1911 6.198 16.5695C6.19738 16.4524 6.29191 16.3568 6.40925 16.3563C6.52699 16.3563 6.62199 16.4505 6.62253 16.5675C6.63066 18.1474 6.87066 19.7138 7.33589 21.2234C7.7841 22.6788 8.43605 24.0617 9.27363 25.3344C9.33808 25.4323 9.31097 25.5639 9.21308 25.6284C9.17722 25.652 9.1366 25.6633 9.0966 25.6633Z" fill="black"/>
<path d="M29.6494 6.85448C28.5816 8.15456 26.7106 8.47808 25.9021 8.55823C25.6798 8.58026 25.483 8.4187 25.4614 8.19628C25.3829 7.38753 25.3368 5.4894 26.4046 4.18933C27.4724 2.88925 29.3434 2.56573 30.1519 2.48558C30.3743 2.46355 30.5711 2.62511 30.5926 2.84753C30.6712 3.6562 30.7173 5.5544 29.6494 6.85448Z" fill="#13C2C2"/>
<path d="M30.5721 2.75714L25.8085 8.55675C25.6557 8.53769 25.5283 8.43152 25.4816 8.28503L30.2431 2.48761C30.3959 2.50659 30.5254 2.61066 30.5721 2.75714Z" fill="black"/>
<path d="M27.754 26.8861L10.199 28.8927C9.81239 28.9369 9.46317 28.6593 9.41895 28.2727L6.63231 3.89427C6.58809 3.50763 6.86575 3.15841 7.25231 3.11419L24.8072 1.10747C25.1939 1.06325 25.5431 1.34083 25.5873 1.72747L28.374 26.1059C28.4182 26.4926 28.1406 26.8418 27.754 26.8861Z" fill="#FFF4C2"/>
<path d="M28.1244 23.9133L9.16748 26.0807L9.11865 25.6604L28.0756 23.493L28.1244 23.9133Z" fill="white"/>
<path d="M27.668 19.9287L8.71107 22.094L8.66443 21.6737L27.6213 19.5084L27.668 19.9287Z" fill="white"/>
<path d="M27.2138 15.9463L8.25684 18.1116L8.20801 17.6891L27.165 15.5238L27.2138 15.9463Z" fill="white"/>
<path d="M26.7573 11.9617L7.80241 14.127L7.75366 13.7046L26.7084 11.5392L26.7573 11.9617Z" fill="white"/>
<path d="M26.303 7.97713L7.34616 10.1424L7.29944 9.72002L26.2542 7.55471L26.303 7.97713Z" fill="white"/>
<path d="M25.8466 3.99263L6.89177 6.15794L6.84302 5.73763L25.7978 3.57021L25.8466 3.99263Z" fill="white"/>
<path d="M10.1181 29.428C9.49955 29.428 8.96384 28.9624 8.89173 28.3333L6.10509 3.95458C6.06759 3.62661 6.16002 3.30388 6.36525 3.04552C6.57072 2.78723 6.86423 2.62427 7.1922 2.58692L24.7469 0.580438C25.0751 0.542078 25.3974 0.635204 25.656 0.840438C25.9142 1.04567 26.0772 1.33942 26.1145 1.66739L28.9012 26.0456C28.9387 26.3736 28.8463 26.6963 28.641 26.9547C28.4356 27.2129 28.142 27.3759 27.8143 27.4133L10.2595 29.42C10.2119 29.4255 10.1648 29.428 10.1181 29.428ZM24.8881 1.6338C24.8814 1.6338 24.8748 1.63403 24.8678 1.63481L7.31267 3.64138C7.21728 3.65239 7.14869 3.7388 7.15947 3.83419L9.94611 28.2124C9.95713 28.3075 10.0392 28.3754 10.1389 28.3656L27.6938 26.3589C27.756 26.3516 27.7933 26.3154 27.8101 26.2942C27.8267 26.273 27.8538 26.2285 27.8468 26.1661L25.0601 1.78786C25.0528 1.72544 25.0166 1.68817 24.9954 1.67153C24.9767 1.65661 24.9396 1.6338 24.8881 1.6338Z" fill="#EB2F96"/>
<path d="M13.7243 16.781C13.1675 16.781 12.8182 16.2392 12.5075 15.7575C12.1677 15.2303 11.9187 14.8854 11.5845 14.9328C11.4669 14.9484 11.3614 14.8667 11.3459 14.7506C11.3303 14.6342 11.412 14.5275 11.5281 14.512C12.1567 14.4291 12.5321 15.012 12.8644 15.5274C13.2042 16.0545 13.4505 16.3978 13.7874 16.352C14.1224 16.3073 14.2708 15.9124 14.4589 15.3151C14.6429 14.7307 14.8515 14.0684 15.4794 13.9845C16.1061 13.9018 16.4834 14.4845 16.8159 14.9998C17.1559 15.527 17.3999 15.8713 17.7396 15.8245C18.0746 15.7797 18.2231 15.3848 18.4111 14.7873C18.5952 14.2029 18.8038 13.5406 19.4315 13.4568C20.0568 13.3735 20.4361 13.9568 20.7685 14.472C21.1089 14.9992 21.3552 15.3429 21.6926 15.2967C22.028 15.2519 22.1764 14.857 22.3647 14.2595C22.549 13.6751 22.7576 13.0127 23.3857 12.9288C23.5014 12.9138 23.6088 12.9949 23.6243 13.111C23.6399 13.2274 23.5582 13.3341 23.4421 13.3496C23.1064 13.3944 22.958 13.7895 22.7698 14.387C22.5855 14.9713 22.377 15.6335 21.749 15.7174C21.118 15.7989 20.7442 15.2172 20.4117 14.7023C20.0715 14.1749 19.8243 13.8322 19.4875 13.8776C19.1527 13.9224 19.0043 14.3173 18.8163 14.9148C18.6322 15.4992 18.4236 16.1615 17.7957 16.2453C17.1715 16.3281 16.7918 15.7453 16.4593 15.2301C16.1193 14.7029 15.8724 14.3599 15.5357 14.4054C15.2004 14.4502 15.052 14.8451 14.864 15.4426C14.68 16.0268 14.4714 16.6892 13.8436 16.7729C13.8028 16.7782 13.7631 16.781 13.7243 16.781Z" fill="black"/>
<path d="M14.1903 20.8591C13.6336 20.8591 13.2843 20.3174 12.9736 19.8356C12.6336 19.3082 12.3844 18.9662 12.0507 19.0112C11.934 19.0263 11.8276 18.9451 11.8121 18.829C11.7965 18.7127 11.8782 18.6059 11.9943 18.5904C12.6193 18.5079 12.9983 19.0902 13.3307 19.6058C13.6707 20.1332 13.9219 20.4756 14.2536 20.4302C14.5886 20.3855 14.7371 19.9906 14.9251 19.3933C15.1092 18.8089 15.3175 18.1466 15.9455 18.0628C16.5726 17.9801 16.9497 18.5628 17.2822 19.078C17.6222 19.6052 17.8677 19.9484 18.206 19.9027C18.541 19.8579 18.6894 19.463 18.8775 18.8655C19.0614 18.2813 19.2699 17.6189 19.8976 17.535C20.5254 17.4516 20.902 18.035 21.2347 18.5502C21.5749 19.0773 21.8243 19.4206 22.1587 19.3748C22.4943 19.3301 22.6428 18.9349 22.831 18.3375C23.015 17.7533 23.2239 17.0909 23.852 17.0072C23.9685 16.9919 24.0749 17.0734 24.0904 17.1896C24.106 17.3057 24.0243 17.4125 23.908 17.4281C23.5728 17.4728 23.4243 17.8677 23.2361 18.4652C23.0518 19.0495 22.8433 19.7118 22.2151 19.7957C21.5843 19.8788 21.2105 19.2955 20.878 18.7806C20.5376 18.2531 20.2909 17.9102 19.9539 17.9559C19.6189 18.0006 19.4707 18.3956 19.2824 18.9931C19.0985 19.5774 18.89 20.2398 18.262 20.3236C17.6368 20.4063 17.2578 19.8236 16.9255 19.3084C16.5853 18.7813 16.3374 18.438 16.0018 18.4838C15.6668 18.5285 15.5183 18.9234 15.3303 19.5207C15.1462 20.1051 14.9379 20.7674 14.3099 20.8513C14.2689 20.8564 14.229 20.8591 14.1903 20.8591Z" fill="black"/>
<path d="M14.648 24.8624C14.0912 24.8624 13.7419 24.3207 13.4312 23.8389C13.0912 23.3117 12.842 22.9674 12.5082 23.0142C12.3908 23.0294 12.2851 22.9479 12.2696 22.832C12.2541 22.7157 12.3358 22.609 12.4519 22.5934C13.0805 22.5109 13.4558 23.0934 13.7882 23.6088C14.128 24.136 14.3738 24.478 14.7112 24.4335C15.0462 24.3887 15.1946 23.9938 15.3826 23.3966C15.5667 22.8122 15.7753 22.1498 16.403 22.0659C17.0314 21.9834 17.4074 22.5659 17.7398 23.081C18.0798 23.6082 18.3291 23.9515 18.6633 23.9057C18.9986 23.8609 19.147 23.466 19.3351 22.8685C19.5191 22.2843 19.7277 21.622 20.3555 21.5382C20.4707 21.5227 20.5783 21.6043 20.5939 21.7206C20.6094 21.8367 20.5278 21.9435 20.4115 21.9591C20.0767 22.0038 19.9283 22.3988 19.7402 22.996C19.5562 23.5804 19.3476 24.2427 18.7197 24.3265C18.0907 24.409 17.7155 23.8262 17.3832 23.3113C17.0432 22.7841 16.8017 22.4421 16.4594 22.4866C16.1244 22.5314 15.976 22.9263 15.788 23.524C15.6039 24.1082 15.3955 24.7705 14.7676 24.8543C14.7266 24.8598 14.6868 24.8624 14.648 24.8624Z" fill="black"/>
<path d="M10.2305 7.49089L10.9258 7.41151L11.4892 9.59471C11.4984 9.5937 11.5548 7.33964 11.5548 7.33964L12.2501 7.26026L12.6041 10.3601L12.1435 10.4128L11.8752 8.06581C11.8666 8.06682 11.7803 10.4542 11.7803 10.4542L11.3731 10.5009L10.7504 8.1944C10.7417 8.19542 11.0099 10.5424 11.0099 10.5424L10.5849 10.5909L10.2305 7.49089Z" fill="black"/>
<path d="M13.3082 8.94245L12.5162 7.22964L13.0341 7.17034L13.4964 8.2705C13.5051 8.26964 13.707 7.09339 13.707 7.09339L14.1809 7.03925L13.7953 8.88675L13.9462 10.2064L13.459 10.262L13.3082 8.94245Z" fill="black"/>
<path d="M15.1997 6.92284L15.9439 6.83784C16.4311 6.7823 16.701 7.02503 16.7574 7.52089L16.937 9.08878C16.9934 9.58464 16.7856 9.88191 16.2981 9.93769L15.5542 10.0227L15.1997 6.92284ZM16.2388 9.49597C16.3938 9.47816 16.4776 9.38777 16.4523 9.16636L16.2682 7.55456C16.2429 7.33316 16.1405 7.26409 15.9859 7.28175L15.7379 7.31011L15.9908 9.52433L16.2388 9.49597Z" fill="black"/>
<path d="M17.0422 6.71222L17.5294 6.65667L17.8835 9.75651L17.3968 9.81206L17.0422 6.71222Z" fill="black"/>
<path d="M18.3134 6.56706L18.9731 6.49159L19.8322 9.53362L19.345 9.5894L19.1861 8.98386C19.1874 8.993 18.6335 9.0562 18.6335 9.0562L18.6144 9.67292L18.1625 9.72456L18.3134 6.56706ZM19.0813 8.57878L18.6895 7.0712C18.6808 7.07222 18.6431 8.6287 18.6431 8.6287L19.0813 8.57878Z" fill="black"/>
<path d="M19.7571 6.40206L20.479 6.31956C20.984 6.26175 21.2278 6.47151 21.2825 6.9498L21.304 7.14034C21.3405 7.45917 21.2618 7.6748 21.0553 7.788C21.3082 7.84417 21.4143 8.06534 21.4541 8.41534L21.5163 8.96011C21.5337 9.11042 21.5507 9.22089 21.6125 9.33034L21.1166 9.38691C21.081 9.31019 21.0577 9.26378 21.0287 9.01128L20.964 8.44448C20.9313 8.15652 20.8363 8.07316 20.6149 8.09847L20.4465 8.11777L20.5987 9.4462L20.1111 9.50175L19.7571 6.40206ZM20.5731 7.65464C20.7547 7.63394 20.8563 7.54144 20.8281 7.29355L20.8008 7.05433C20.7754 6.83292 20.6888 6.74417 20.5163 6.76386L20.2949 6.78917L20.3961 7.67503L20.5731 7.65464Z" fill="black"/>
<path d="M22.1661 7.92995L21.3738 6.21714L21.8921 6.15784L22.3543 7.258C22.3626 7.25698 22.565 6.08089 22.565 6.08089L23.0389 6.02675L22.6533 7.87425L22.8042 9.19394L22.3171 9.24948L22.1661 7.92995Z" fill="black"/>
<path d="M14.8269 2.46074C14.7204 2.46074 14.6286 2.38089 14.6163 2.27253C14.6028 2.15605 14.6866 2.05089 14.8031 2.03761L17.2083 1.76253C17.3216 1.74761 17.43 1.83261 17.4432 1.94933C17.4566 2.06582 17.3729 2.17097 17.2564 2.18425L14.8512 2.45933C14.8431 2.46035 14.835 2.46074 14.8269 2.46074Z" fill="black"/>
<path d="M40.1309 17.377L31.2994 11.1274C31.0769 10.7487 30.7073 10.5004 30.299 10.4195L30.2562 10.3892L30.2435 10.4079C29.9584 10.3624 29.6573 10.3988 29.3761 10.5299L24.2548 13.0367C23.8587 13.2215 23.5821 13.5581 23.4599 13.9445C23.4289 14.0038 23.4001 14.065 23.3767 14.1298L22.0867 17.82C21.8056 18.5981 22.2063 19.4588 22.9864 19.7378C23.6662 19.9836 24.4077 19.7068 24.7715 19.114L34.3223 26.2285C34.5187 26.3747 34.7977 26.325 34.9315 26.1199L40.253 17.9636C40.3808 17.7677 40.3262 17.5055 40.1309 17.377ZM26.0784 15.4788L27.16 14.9494L25.3122 17.6707L26.0784 15.4788Z" fill="#FFD591"/>
<path d="M39.0387 4.68386C38.2938 3.93909 37.0863 3.93909 36.3415 4.68386L22.2384 18.787L20.4074 23.1539C20.3648 23.2556 20.4669 23.3578 20.5686 23.3151L24.9355 21.4841L39.0387 7.38097C39.7834 6.6362 39.7834 5.42862 39.0387 4.68386Z" fill="#13C2C2"/>
<path d="M24.6984 21.4592C24.6441 21.4592 24.5897 21.4385 24.5483 21.397L22.3254 19.1741C22.2425 19.0912 22.2425 18.9568 22.3254 18.8739C22.4082 18.791 22.5426 18.791 22.6255 18.8739L24.8485 21.0969C24.9314 21.1798 24.9314 21.3141 24.8485 21.397C24.807 21.4385 24.7527 21.4592 24.6984 21.4592Z" fill="black"/>
<path d="M21.6111 22.7667C21.5568 22.7667 21.5025 22.746 21.4611 22.7045L21.0179 22.2613C20.935 22.1784 20.935 22.0441 21.0179 21.9612C21.1007 21.8783 21.2351 21.8783 21.318 21.9612L21.7612 22.4044C21.8441 22.4873 21.8441 22.6216 21.7612 22.7045C21.7198 22.746 21.6654 22.7667 21.6111 22.7667Z" fill="black"/>
<path d="M39.0703 7.08722C39.016 7.08722 38.9617 7.06651 38.9203 7.02503L36.6973 4.80229C36.6144 4.7194 36.6144 4.58503 36.6973 4.50214C36.7803 4.41917 36.9146 4.41917 36.9975 4.50214L39.2204 6.72487C39.3034 6.80776 39.3034 6.94214 39.2204 7.02503C39.1789 7.06651 39.1246 7.08722 39.0703 7.08722Z" fill="black"/>
<path d="M35.3527 9.47581C35.0694 9.47581 34.7859 9.36799 34.5704 9.15221C34.139 8.72081 34.139 8.01862 34.5704 7.58721C34.7794 7.37823 35.0571 7.26299 35.3527 7.26299C35.6483 7.26299 35.9262 7.37823 36.1351 7.58721C36.5665 8.01862 36.5665 8.72081 36.1351 9.15221C35.9195 9.36799 35.6361 9.47581 35.3527 9.47581ZM35.3527 7.6876C35.1705 7.6876 34.9993 7.75854 34.8705 7.88745C34.6046 8.15338 34.6046 8.58612 34.8705 8.85206C35.128 9.10956 35.5775 9.10956 35.8349 8.85206C36.1009 8.58612 36.1009 8.15338 35.8349 7.88745C35.7062 7.75846 35.5349 7.6876 35.3527 7.6876Z" fill="black"/>
<path d="M33.1495 11.6791C32.8661 11.6791 32.5827 11.5713 32.3671 11.3555C31.9357 10.9241 31.9357 10.2219 32.3671 9.79049C32.5761 9.5815 32.8539 9.46627 33.1495 9.46627C33.4451 9.46627 33.7231 9.5815 33.9321 9.79049C34.3632 10.2219 34.3632 10.9241 33.9321 11.3555C33.7163 11.5711 33.4329 11.6791 33.1495 11.6791ZM33.1495 9.89088C32.9673 9.89088 32.796 9.96182 32.6673 10.0907C32.4014 10.3567 32.4014 10.7893 32.6673 11.0553C32.9333 11.3215 33.366 11.3211 33.6319 11.0553C33.8977 10.7893 33.8977 10.3567 33.6319 10.0907C33.5029 9.96197 33.3317 9.89088 33.1495 9.89088Z" fill="black"/>
<path d="M34.1406 24.1145C34.5496 23.9342 34.8922 23.6022 35.0763 23.1565C35.4556 22.2392 35.0195 21.1881 34.1021 20.8089L26.8 17.8488C25.8826 17.4693 24.8313 17.9053 24.4521 18.8232C24.0729 19.7405 24.509 20.7916 25.4263 21.1708L32.7285 24.1309C33.2004 24.3259 33.7077 24.3054 34.1406 24.1145Z" fill="#FFD591"/>
<path d="M31.0391 19.7795C31.0126 19.7795 30.9855 19.7745 30.9593 19.7639L26.0954 17.7922C25.9868 17.7483 25.9345 17.6243 25.9784 17.5156C26.0224 17.407 26.1462 17.3545 26.255 17.3987L31.1188 19.3704C31.2275 19.4144 31.2797 19.5383 31.2358 19.647C31.2025 19.7295 31.1229 19.7795 31.0391 19.7795Z" fill="black"/>
<path d="M5.64632 18.121C8.39645 17.9368 10.4766 15.5581 10.2925 12.8079C10.1084 10.0578 7.72971 7.97756 4.97957 8.16167C2.22943 8.34579 0.149256 10.7245 0.333374 13.4747C0.517491 16.2249 2.89618 18.3051 5.64632 18.121Z" fill="#FFEC3D"/>
<path d="M10.2948 13.3967C10.2862 13.5963 10.2651 13.7937 10.2311 13.9911C9.98062 13.6514 9.68343 13.3436 9.34804 13.0804C8.69421 12.5667 7.92367 12.2419 7.10843 12.1294C7.05109 13.1335 6.69874 14.1313 6.0321 14.9803C5.06625 16.2095 3.61 16.9163 2.06664 16.927C1.9032 16.7911 1.7482 16.6425 1.61023 16.4854C3.1896 16.6255 4.71804 15.9653 5.69882 14.7192C7.2846 12.6962 6.93429 9.75815 4.91335 8.16815C5.12359 8.14901 5.33367 8.14479 5.5439 8.15541C6.54375 9.10643 7.07875 10.395 7.11476 11.7027C8.02335 11.8195 8.88312 12.176 9.60906 12.7471C9.85953 12.9424 10.0888 13.159 10.2948 13.3967Z" fill="black"/>
</svg>
