<svg width="16" height="16" viewBox="0 0 16 16" fill="none" xmlns="http://www.w3.org/2000/svg">
<path d="M13.9331 13.9467C13.826 14.0765 13.682 14.1709 13.5202 14.2173C13.3583 14.2637 13.1862 14.26 13.0265 14.2067L12.3132 13.9667L12.0466 14.7733C11.9944 14.9261 11.8994 15.0608 11.7729 15.1612C11.6465 15.2617 11.4938 15.3237 11.3332 15.34H11.2531C11.1049 15.3405 10.9592 15.3012 10.8314 15.2261C10.7036 15.1511 10.5983 15.043 10.5265 14.9133L9.1665 12.4667C9.21178 12.4325 9.25414 12.3945 9.29313 12.3533L10.0466 11.6067H11.1066C11.4351 11.6053 11.7572 11.5162 12.0396 11.3486C12.3221 11.181 12.5547 10.941 12.7132 10.6533L14.0199 13.0067C14.1017 13.1539 14.1372 13.3224 14.1217 13.4901C14.1062 13.6578 14.0405 13.8169 13.9331 13.9467Z" fill="white"/>
<path d="M6.83341 12.4667L5.47341 14.9133C5.40165 15.043 5.29636 15.1511 5.16854 15.2261C5.04072 15.3012 4.89508 15.3405 4.74685 15.34H4.66674C4.50608 15.3237 4.35346 15.2616 4.22701 15.1612C4.10056 15.0607 4.00559 14.9261 3.95336 14.7733L3.68674 13.9667L2.97341 14.2067C2.8136 14.2596 2.64152 14.2631 2.47969 14.2167C2.31787 14.1702 2.17385 14.0759 2.06649 13.9463C1.95913 13.8166 1.89344 13.6575 1.87803 13.4898C1.86261 13.3222 1.89818 13.1538 1.98008 13.0067L3.28674 10.6533C3.44533 10.941 3.6779 11.181 3.9604 11.3486C4.24289 11.5163 4.56504 11.6053 4.89352 11.6067H5.95336L6.70678 12.3533C6.74578 12.3945 6.78813 12.4325 6.83341 12.4667Z" fill="white"/>
<path d="M13.2154 5.8418L12.3196 4.946C12.3041 4.93053 12.2919 4.91215 12.2837 4.89192C12.2754 4.87169 12.2712 4.85001 12.2714 4.82816V3.56184C12.271 3.25254 12.148 2.95601 11.9293 2.7373C11.7106 2.51859 11.414 2.39555 11.1047 2.39518H9.83846C9.8166 2.39536 9.79493 2.3912 9.7747 2.38293C9.75447 2.37466 9.73608 2.36244 9.72062 2.347L8.82478 1.45117C8.60575 1.23291 8.30914 1.11035 7.99992 1.11035C7.6907 1.11035 7.39409 1.23291 7.17505 1.45117L6.27925 2.347C6.26378 2.36244 6.2454 2.37466 6.22517 2.38293C6.20494 2.3912 6.18327 2.39536 6.16141 2.39518H4.8951C4.58579 2.39555 4.28927 2.51859 4.07055 2.7373C3.85184 2.95601 3.72881 3.25254 3.72843 3.56184V4.82812C3.72861 4.84998 3.72445 4.87165 3.71618 4.89188C3.70791 4.91211 3.6957 4.9305 3.68026 4.94596L2.78442 5.8418C2.56587 6.06068 2.44312 6.35735 2.44312 6.66666C2.44312 6.97598 2.56587 7.27265 2.78442 7.49153L3.68026 8.38736C3.6957 8.40283 3.70791 8.42122 3.71618 8.44145C3.72445 8.46168 3.72861 8.48335 3.72843 8.5052V9.77148C3.72881 10.0808 3.85184 10.3773 4.07055 10.596C4.28927 10.8147 4.58579 10.9378 4.8951 10.9382H6.16138C6.18323 10.938 6.20491 10.9421 6.22514 10.9504C6.24537 10.9587 6.26375 10.9709 6.27922 10.9863L7.17505 11.8822C7.39398 12.1006 7.69064 12.2233 7.99992 12.2233C8.3092 12.2233 8.60585 12.1006 8.82478 11.8822L9.72062 10.9863C9.73608 10.9709 9.75447 10.9587 9.7747 10.9504C9.79493 10.9421 9.8166 10.938 9.83846 10.9382H11.1047C11.414 10.9378 11.7106 10.8147 11.9293 10.596C12.148 10.3773 12.271 10.0808 12.2714 9.77148V8.5052C12.2712 8.48335 12.2754 8.46168 12.2837 8.44145C12.2919 8.42122 12.3041 8.40283 12.3196 8.38736L13.2154 7.49153C13.434 7.27265 13.5567 6.97598 13.5567 6.66666C13.5567 6.35735 13.434 6.06068 13.2154 5.8418ZM10.1765 6.293L9.25903 7.02689C9.22135 7.05707 9.19354 7.09783 9.17919 7.14393C9.16483 7.19003 9.16458 7.23936 9.17846 7.2856L9.59888 8.68713C9.61353 8.73597 9.6124 8.78819 9.59564 8.83635C9.57888 8.8845 9.54735 8.92614 9.50553 8.95533C9.46372 8.98451 9.41376 8.99975 9.36278 8.99888C9.31179 8.99801 9.26239 8.98106 9.2216 8.95046L8.14525 8.14322C8.10332 8.11179 8.05232 8.0948 7.99992 8.0948C7.94751 8.0948 7.89652 8.11179 7.85458 8.14322L6.77825 8.95048C6.73746 8.98107 6.68806 8.998 6.63708 8.99887C6.5861 8.99974 6.53614 8.9845 6.49433 8.95532C6.45252 8.92613 6.42099 8.8845 6.40423 8.83635C6.38746 8.7882 6.38632 8.73598 6.40097 8.68714L6.82138 7.28562C6.83531 7.23938 6.83508 7.19003 6.82072 7.14392C6.80636 7.09782 6.77853 7.05706 6.74082 7.0269L5.82332 6.293C5.78413 6.26165 5.75565 6.21889 5.74181 6.17064C5.72798 6.12239 5.72947 6.07104 5.74609 6.02368C5.76271 5.97631 5.79364 5.93529 5.83459 5.90626C5.87554 5.87724 5.9245 5.86166 5.97469 5.86167H7.02547C7.07288 5.86166 7.11924 5.84774 7.15881 5.82165C7.19839 5.79555 7.22945 5.75843 7.24814 5.71486L7.77725 4.48014C7.79592 4.43656 7.82697 4.39941 7.86655 4.37331C7.90613 4.3472 7.9525 4.33329 7.99992 4.33329C8.04733 4.33329 8.0937 4.3472 8.13328 4.37331C8.17286 4.39941 8.20391 4.43656 8.22258 4.48014L8.75172 5.71488C8.77042 5.75845 8.80147 5.79558 8.84105 5.82167C8.88063 5.84776 8.92699 5.86168 8.97439 5.86169H10.0252C10.0754 5.86169 10.1243 5.87728 10.1652 5.9063C10.2062 5.93533 10.2371 5.97635 10.2537 6.02371C10.2703 6.07106 10.2718 6.12241 10.258 6.17065C10.2442 6.21889 10.2157 6.26165 10.1765 6.293Z" fill="white"/>
</svg>
