<svg width="18" height="20" viewBox="0 0 18 20" fill="none" xmlns="http://www.w3.org/2000/svg">
<path d="M17.9732 13.1633C17.7633 11.6327 17.4484 9.3878 17.1336 7.7551C17.0286 7.04082 16.8187 6.22449 16.5039 5.5102C15.6643 2.2449 12.5158 0 9.05241 0C5.48415 0 2.33564 2.2449 1.49604 5.40816C1.28614 6.22449 1.07624 7.04082 0.866345 7.7551C0.551495 9.3878 0.236645 11.6327 0.0267448 13.1633C-0.183155 14.5918 0.866345 15.9184 2.33565 16.2245C3.38515 16.4286 4.7495 16.5306 6.11385 16.7347V17.1429C6.11385 18.6735 7.37321 20 9.05241 20C10.6267 20 11.991 18.7755 11.991 17.1429V16.7347C13.3554 16.6327 14.6148 16.4286 15.7692 16.2245C17.1336 15.9184 18.1831 14.5918 17.9732 13.1633ZM10.3118 17.1429C10.3118 17.8571 9.68211 18.3673 9.05241 18.3673C8.42271 18.3673 7.68811 17.7551 7.68811 17.1429V16.8367H9.05241H10.3118V17.1429Z" fill="#18AAA1"/>
</svg>
