<svg width="32" height="32" viewBox="0 0 32 32" fill="none" xmlns="http://www.w3.org/2000/svg">
<path d="M16 6.66667C17.9096 6.66667 19.7409 7.34095 21.0912 8.54118C22.4414 9.74142 23.2 11.3693 23.2 13.0667C23.2 15.6921 23.7935 17.6581 24.563 19.1039C25.5463 20.951 26.0379 21.8746 26.0105 22.0857C25.9786 22.3318 25.938 22.3995 25.7356 22.5434C25.5622 22.6667 24.6993 22.6667 22.9736 22.6667H9.02637C7.30067 22.6667 6.43782 22.6667 6.26436 22.5434C6.06203 22.3995 6.02138 22.3318 5.98948 22.0857C5.96214 21.8746 6.45376 20.951 7.43699 19.1039C8.20656 17.6581 8.80001 15.6921 8.80001 13.0667C8.80001 11.3693 9.55858 9.74142 10.9088 8.54118C12.2591 7.34095 14.0904 6.66667 16 6.66667ZM16 6.66667V4M12.472 26.6667C13.4137 27.4978 14.6506 28.0021 16.0053 28.0021C17.3601 28.0021 18.597 27.4978 19.5387 26.6667" stroke="white" stroke-width="2" stroke-linecap="round" stroke-linejoin="round"/>
</svg>
