<svg width="32" height="32" viewBox="0 0 32 32" fill="none" xmlns="http://www.w3.org/2000/svg">
<path d="M6.66675 8.26666C6.66675 6.77319 6.66675 6.02646 6.9574 5.45603C7.21306 4.95426 7.62101 4.54631 8.12277 4.29065C8.6932 4 9.43994 4 10.9334 4H21.0667C22.5602 4 23.307 4 23.8774 4.29065C24.3792 4.54631 24.7871 4.95426 25.0428 5.45603C25.3334 6.02646 25.3334 6.77319 25.3334 8.26667V23.8545C25.3334 25.194 25.3334 25.8638 25.0556 26.2237C24.8137 26.5371 24.4451 26.7268 24.0495 26.7415C23.5951 26.7583 23.0501 26.3691 21.9601 25.5905L16.0001 21.3333L10.0401 25.5905C8.95006 26.3691 8.40506 26.7583 7.95067 26.7415C7.55507 26.7268 7.18644 26.5371 6.94457 26.2237C6.66675 25.8638 6.66675 25.194 6.66675 23.8545V8.26666Z" stroke="white" stroke-width="2" stroke-linecap="round" stroke-linejoin="round"/>
</svg>
