<svg width="20" height="20" viewBox="0 0 20 20" fill="none" xmlns="http://www.w3.org/2000/svg">
<path d="M1 7.25H19M5 1.25V3.25M15 1.25V3.25M4 11.25H6M4 15.25H6M9 11.25H11M9 15.25H11M14 11.25H16M14 15.25H16M4.2 19.25H15.8C16.9201 19.25 17.4802 19.25 17.908 19.032C18.2843 18.8403 18.5903 18.5343 18.782 18.158C19 17.7302 19 17.1701 19 16.05V6.45C19 5.32989 19 4.76984 18.782 4.34202C18.5903 3.96569 18.2843 3.65973 17.908 3.46799C17.4802 3.25 16.9201 3.25 15.8 3.25H4.2C3.0799 3.25 2.51984 3.25 2.09202 3.46799C1.71569 3.65973 1.40973 3.96569 1.21799 4.34202C1 4.76984 1 5.32989 1 6.45V16.05C1 17.1701 1 17.7302 1.21799 18.158C1.40973 18.5343 1.71569 18.8403 2.09202 19.032C2.51984 19.25 3.07989 19.25 4.2 19.25Z" stroke="#13C2C2" stroke-width="1.5" stroke-linecap="round" stroke-linejoin="round"/>
</svg>
