<svg width="27" height="25" viewBox="0 0 27 25" fill="none" xmlns="http://www.w3.org/2000/svg">
<path d="M4.20244 6.65039H24.8524H25.8024C26.1524 6.65039 26.5024 6.75039 26.8524 6.90039V4.60039C26.8524 2.35039 25.0524 0.500391 22.8024 0.400391V2.40039V2.70039C22.8024 3.25039 22.3524 3.70039 21.8024 3.70039C21.2524 3.70039 20.8024 3.20039 20.8024 2.70039C20.8024 2.60039 20.8024 2.50039 20.8024 2.40039C20.8024 1.75039 20.8024 1.10039 20.8024 0.400391H8.45244V2.40039V2.60039C8.45244 3.15039 8.00244 3.60039 7.45244 3.60039C6.90244 3.60039 6.45244 3.10039 6.45244 2.60039C6.45244 2.55039 6.45244 2.45039 6.45244 2.40039C6.45244 2.35039 6.45244 2.35039 6.45244 2.30039C6.45244 1.65039 6.45244 1.05039 6.45244 0.400391C4.15244 0.400391 2.25244 2.30039 2.25244 4.60039V7.95039C2.55244 7.15039 3.30244 6.65039 4.20244 6.65039Z" fill="#13C2C2"/>
<path d="M24.8524 19.9505C24.1524 21.3505 22.7524 22.2005 21.2524 22.2005H4.75244H2.50244C3.10244 23.8505 4.65244 25.0005 6.45244 25.0005H22.6524C24.9524 25.0005 26.8524 23.1005 26.8524 20.8005V14.7505C26.7024 15.3005 26.5024 15.9005 26.3024 16.4505C25.9024 17.6005 25.4024 18.8005 24.8524 19.9505Z" fill="#13C2C2"/>
<path d="M25.8025 8.65039H4.20247C4.10247 8.65039 4.05248 8.70039 4.05248 8.80039C3.75248 11.2504 3.15247 13.6504 2.35247 15.9504C1.95247 17.0004 1.50247 18.1004 1.00247 19.1504C0.802475 19.6004 1.10247 20.2004 1.65247 20.2004H21.3025C22.0525 20.2004 22.7525 19.7504 23.1025 19.1004C23.6025 18.0504 24.0525 16.9004 24.4525 15.8004C25.2525 13.5504 25.7525 11.2004 26.0025 8.85039C26.0025 8.80039 26.0025 8.75039 25.9525 8.70039C25.9025 8.65039 25.8525 8.65039 25.8025 8.65039ZM18.2025 12.7004C16.8525 14.0504 15.5025 15.4004 14.1025 16.8004C13.7025 17.2004 13.0525 17.2004 12.7025 16.8004C11.7525 15.8504 10.8025 14.9004 9.85248 13.9504C8.95248 13.0504 10.3525 11.6004 11.2525 12.5504C11.9525 13.2504 12.7025 14.0004 13.4025 14.7004C14.5525 13.5504 15.6525 12.4504 16.8025 11.3004C17.7025 10.4004 19.1025 11.8004 18.2025 12.7004Z" fill="#13C2C2"/>
</svg>
