<svg width="24" height="24" viewBox="0 0 24 24" fill="none" xmlns="http://www.w3.org/2000/svg">
<path d="M2.60931 12.5993C2.30219 12.5993 2.05322 12.3503 2.05322 12.0432C2.05322 11.7361 2.30219 11.4871 2.60931 11.4871H7.68821C7.99533 11.4871 8.24429 11.7361 8.24429 12.0432C8.24429 12.3503 7.99533 12.5993 7.68821 12.5993H2.60931ZM5.1364 14.9843C4.7781 14.9843 4.48764 14.6938 4.48764 14.3355V9.66439C4.48764 9.30609 4.7781 9.01562 5.1364 9.01562C5.4947 9.01562 5.78517 9.30609 5.78517 9.66439V14.3355C5.78517 14.6938 5.4947 14.9843 5.1364 14.9843Z" fill="#2C2F35" fill-opacity="0.6"/>
<path d="M12.2471 16.3991C11.8187 16.3991 11.4192 16.3249 11.0484 16.1766C10.686 16.0201 10.3688 15.8059 10.0969 15.5341C9.8333 15.2622 9.62322 14.9409 9.4667 14.5702C9.31841 14.1995 9.24426 13.7917 9.24426 13.3468C9.24426 13.1244 9.2731 12.8772 9.33076 12.6053C9.39667 12.3252 9.49141 12.0204 9.61498 11.6909C9.7468 11.3614 9.90333 11.0154 10.0846 10.6529C10.2658 10.2821 10.4759 9.89907 10.7148 9.50363L11.6721 7.88359C11.7757 7.70819 11.9643 7.60059 12.168 7.60059C12.6049 7.60059 12.8828 8.06792 12.6742 8.45177L11.827 10.0103C11.5798 10.4304 11.3574 10.83 11.1597 11.209C10.9702 11.5879 10.8095 11.9463 10.6777 12.2841C10.5893 12.505 10.2195 12.4924 10.1655 12.2606L10.1109 12.0264C10.094 11.954 10.106 11.8775 10.1465 11.815C10.2854 11.6005 10.4336 11.4108 10.5912 11.246C10.7725 11.0483 10.9661 10.8835 11.172 10.7517C11.3862 10.6199 11.6087 10.5211 11.8393 10.4552C12.07 10.3892 12.3089 10.3563 12.5561 10.3563C13.0339 10.3563 13.4705 10.4881 13.8659 10.7517C14.2696 11.0071 14.5909 11.349 14.8298 11.7774C15.077 12.2058 15.2005 12.6754 15.2005 13.1861C15.2005 13.804 15.0728 14.356 14.8175 14.842C14.5703 15.3199 14.2243 15.6988 13.7794 15.9789C13.3346 16.259 12.8238 16.3991 12.2471 16.3991ZM12.2471 15.1633C12.5684 15.1633 12.8526 15.0892 13.0998 14.9409C13.3552 14.7844 13.5529 14.5702 13.6929 14.2983C13.8412 14.0182 13.9154 13.701 13.9154 13.3468C13.9154 13.042 13.8412 12.7578 13.6929 12.4941C13.5446 12.2223 13.3469 12.0039 13.0998 11.8392C12.8526 11.6744 12.5766 11.592 12.2718 11.592C11.9341 11.592 11.6334 11.6703 11.3697 11.8268C11.1061 11.9834 10.9002 12.1934 10.7519 12.4571C10.6036 12.7207 10.5294 13.0131 10.5294 13.3344C10.5294 13.6804 10.6036 13.9935 10.7519 14.2736C10.9002 14.5455 11.102 14.7638 11.3574 14.9285C11.6128 15.0851 11.9093 15.1633 12.2471 15.1633Z" fill="#2C2F35" fill-opacity="0.6"/>
<path d="M17.2895 16.3866C16.9451 16.3866 16.6354 16.1773 16.5068 15.8579C16.3873 15.5609 16.4461 15.222 16.6586 14.9827L18.9563 12.3951C19.0963 12.2468 19.2405 12.0779 19.3888 11.8885C19.5453 11.6907 19.6936 11.4889 19.8336 11.2829C19.9737 11.077 20.0849 10.8752 20.1673 10.6774C20.2579 10.4715 20.3032 10.2779 20.3032 10.0966C20.3032 9.83301 20.2497 9.61058 20.1426 9.42933C20.0437 9.23985 19.8954 9.09568 19.6977 8.99682C19.5082 8.89797 19.2776 8.84854 19.0057 8.84854C18.7668 8.84854 18.532 8.91856 18.3013 9.05861C18.0707 9.19866 17.8606 9.39638 17.6711 9.65177C17.6245 9.71458 17.5804 9.77988 17.5388 9.84767C17.3367 10.1769 16.9071 10.3416 16.5798 10.1365C16.3555 9.99598 16.2471 9.72122 16.3499 9.47733C16.4767 9.17653 16.637 8.90927 16.8308 8.67553C17.1191 8.32952 17.461 8.0659 17.8565 7.88466C18.2601 7.70341 18.6968 7.61279 19.1663 7.61279C19.6524 7.61279 20.0849 7.71577 20.4639 7.92173C20.8428 8.11945 21.1394 8.39955 21.3536 8.76203C21.5678 9.11628 21.6749 9.52819 21.6749 9.99778C21.6749 10.1873 21.6543 10.3809 21.6131 10.5786C21.5719 10.7763 21.506 10.9823 21.4154 11.1964C21.3248 11.4024 21.2094 11.6207 21.0694 11.8514C20.9293 12.0738 20.7605 12.3086 20.5627 12.5558C20.3733 12.8029 20.1549 13.0624 19.9078 13.3343L18.0652 15.3391C18.003 15.4068 17.8938 15.3983 17.8428 15.3218C17.78 15.2276 17.8475 15.1014 17.9608 15.1014H21.3042C21.6591 15.1014 21.9468 15.3891 21.9468 15.744C21.9468 16.0989 21.6591 16.3866 21.3042 16.3866H17.2895Z" fill="#2C2F35" fill-opacity="0.6"/>
</svg>
