<svg width="12" height="12" viewBox="0 0 12 12" fill="none" xmlns="http://www.w3.org/2000/svg">
<path d="M2.43648 1.5H9.56348C9.64238 1.49999 9.72013 1.51865 9.79043 1.55445C9.86078 1.59026 9.92158 1.64218 9.96798 1.706L11.8795 4.334C11.9135 4.38076 11.9302 4.43785 11.9268 4.49556C11.9234 4.55327 11.9002 4.60801 11.861 4.6505L6.18348 10.801C6.16008 10.8263 6.13168 10.8465 6.10013 10.8603C6.06853 10.8741 6.03443 10.8812 5.99998 10.8812C5.96553 10.8812 5.93143 10.8741 5.89983 10.8603C5.86828 10.8465 5.83988 10.8263 5.81648 10.801L0.138976 4.651C0.0996516 4.60848 0.0763086 4.55363 0.0729346 4.49581C0.0695606 4.438 0.0863641 4.38081 0.120476 4.334L2.03198 1.706C2.07837 1.64218 2.1392 1.59026 2.2095 1.55445C2.27981 1.51865 2.35758 1.49999 2.43648 1.5Z" fill="url(#paint0_linear_6001_29841)"/>
<defs>
<linearGradient id="paint0_linear_6001_29841" x1="1.80704" y1="-0.122767" x2="3.12709" y2="11.2157" gradientUnits="userSpaceOnUse">
<stop stop-color="#FFC164"/>
<stop offset="1" stop-color="#FF9364"/>
</linearGradient>
</defs>
</svg>
