<svg width="48" height="48" viewBox="0 0 48 48" fill="none" xmlns="http://www.w3.org/2000/svg">
<rect width="48" height="48" rx="24" fill="#F7FFFF"/>
<path fill-rule="evenodd" clip-rule="evenodd" d="M27.9575 15H20.0425C19.5666 15 19.1446 15 18.7893 15.0324C18.4039 15.0676 18.0279 15.1454 17.6559 15.3391C17.2838 15.5328 17.0045 15.7962 16.7547 16.0918C16.5243 16.3642 16.2824 16.7099 16.0095 17.0998L15.9865 17.1327L15.3893 17.9858L15.3585 18.0298C14.9733 18.58 14.6362 19.0615 14.4051 19.4898C14.1553 19.9527 13.9772 20.4436 13.994 21.0149C14.0108 21.5862 14.2176 22.0658 14.4941 22.5131C14.7501 22.9272 15.115 23.388 15.5319 23.9145L20.8641 30.6499C21.211 31.0881 21.5059 31.4607 21.7686 31.7453C22.0411 32.0406 22.3437 32.3151 22.7291 32.4954C23.5345 32.872 24.4655 32.872 25.2709 32.4954C25.6563 32.3151 25.9589 32.0406 26.2314 31.7453C26.4941 31.4607 26.789 31.0882 27.1359 30.6499L32.4681 23.9145C32.8849 23.388 33.2499 22.9272 33.5058 22.5131C33.7824 22.0658 33.9891 21.5862 34.006 21.0149C34.0228 20.4436 33.8447 19.9527 33.5949 19.4898C33.3638 19.0615 33.0267 18.58 32.6415 18.0298L31.9905 17.0999C31.7176 16.7099 31.4757 16.3642 31.2453 16.0918C30.9955 15.7962 30.7162 15.5328 30.3441 15.3391C29.972 15.1454 29.5961 15.0676 29.2107 15.0324C28.8554 15 28.4335 15 27.9575 15ZM21.832 20.0547C22.1384 19.5952 22.0142 18.9743 21.5547 18.668C21.0952 18.3616 20.4743 18.4858 20.1679 18.9453L19.6679 19.6953C19.1257 20.5086 19.1831 21.5817 19.8088 22.3327L21.7318 24.6402C22.0853 25.0645 22.7159 25.1218 23.1402 24.7682C23.5645 24.4147 23.6218 23.7841 23.2682 23.3598L21.3453 21.0523C21.2865 20.9818 21.2811 20.8811 21.332 20.8047L21.832 20.0547Z" fill="#13C2C2"/>
</svg>
