<svg width="13" height="13" viewBox="0 0 13 13" fill="none" xmlns="http://www.w3.org/2000/svg">
<path d="M7.50921 9.62475L6.39718 8.52198C5.86056 7.98984 5.59225 7.72377 5.28434 7.62649C5.01354 7.54094 4.7225 7.54409 4.45361 7.63548C4.14788 7.7394 3.88539 8.01121 3.36041 8.55484L0.696023 11.1865M7.50921 9.62475L7.7368 9.39905C8.27407 8.86626 8.54271 8.59986 8.85093 8.50262C9.122 8.41711 9.41331 8.42046 9.68234 8.51218C9.98825 8.61648 10.2507 8.88899 10.7756 9.434L11.3333 9.99537M7.50921 9.62475L10.1833 12.3041M10.1833 12.3041C9.94501 12.3331 9.63619 12.3331 9.19996 12.3331H2.79996C2.05322 12.3331 1.67985 12.3331 1.39464 12.1878C1.14376 12.0599 0.939782 11.8559 0.811951 11.6051C0.751934 11.4873 0.716704 11.3545 0.696023 11.1865M10.1833 12.3041C10.3528 12.2835 10.4867 12.2482 10.6053 12.1878C10.8562 12.0599 11.0601 11.8559 11.188 11.6051C11.3333 11.3199 11.3333 10.9465 11.3333 10.1997V9.99537M6.33329 1.66634L2.79996 1.66641C2.05322 1.66641 1.67985 1.66641 1.39464 1.81174C1.14376 1.93957 0.939782 2.14354 0.811951 2.39443C0.666626 2.67964 0.666626 3.05301 0.666626 3.79975V10.1997C0.666626 10.6381 0.666626 10.9478 0.696023 11.1865M11.3333 6.66634V9.99537M7.33326 5.66644L8.68324 5.39645C8.80095 5.3729 8.85981 5.36113 8.91469 5.33961C8.9634 5.3205 9.0097 5.29572 9.05262 5.26579C9.10097 5.23206 9.14342 5.18962 9.2283 5.10474L11.9999 2.33311C12.3681 1.96492 12.3681 1.36796 11.9999 0.999775C11.6317 0.631585 11.0348 0.631586 10.6666 0.999776L7.89496 3.77141C7.81008 3.85629 7.76764 3.89873 7.73392 3.94709C7.70398 3.99001 7.67921 4.0363 7.6601 4.08501C7.63857 4.1399 7.6268 4.19875 7.60326 4.31646L7.33326 5.66644Z" stroke="#18AAA1" stroke-width="1.33333" stroke-linecap="round" stroke-linejoin="round"/>
</svg>
