<svg width="30" height="27" viewBox="0 0 30 27" fill="none" xmlns="http://www.w3.org/2000/svg">
<path d="M26.9999 24.167H29.6666V26.8337H0.333252V24.167H2.99992V1.50033C2.99992 1.1467 3.1404 0.807566 3.39044 0.557512C3.64049 0.307472 3.97963 0.166992 4.33325 0.166992H25.6666C26.0202 0.166992 26.3594 0.307472 26.6094 0.557512C26.8594 0.807566 26.9999 1.1467 26.9999 1.50033V24.167ZM13.6666 8.16699H10.9999V10.8337H13.6666V13.5003H16.3333V10.8337H18.9999V8.16699H16.3333V5.50033H13.6666V8.16699ZM17.6666 24.167H20.3333V16.167H9.66659V24.167H12.3333V18.8337H17.6666V24.167Z" fill="#13C2C2"/>
</svg>
