<svg width="20" height="20" viewBox="0 0 20 20" fill="none" xmlns="http://www.w3.org/2000/svg">
<path fill-rule="evenodd" clip-rule="evenodd" d="M19.6 9.9999C19.6 15.3019 15.302 19.5999 10 19.5999C4.69809 19.5999 0.400024 15.3019 0.400024 9.9999C0.400024 4.69797 4.69809 0.399902 10 0.399902C15.302 0.399902 19.6 4.69797 19.6 9.9999ZM11.2 5.1999C11.2 5.86264 10.6628 6.3999 10 6.3999C9.33729 6.3999 8.80002 5.86264 8.80002 5.1999C8.80002 4.53717 9.33729 3.9999 10 3.9999C10.6628 3.9999 11.2 4.53717 11.2 5.1999ZM8.80002 8.7999C8.13729 8.7999 7.60002 9.33717 7.60002 9.9999C7.60002 10.6627 8.13729 11.1999 8.80002 11.1999V14.7999C8.80002 15.4627 9.33729 15.9999 10 15.9999H11.2C11.8628 15.9999 12.4 15.4627 12.4 14.7999C12.4 14.1371 11.8628 13.5999 11.2 13.5999V9.9999C11.2 9.33717 10.6628 8.7999 10 8.7999H8.80002Z" fill="#18AAA1"/>
</svg>
