<svg width="18" height="20" viewBox="0 0 18 20" fill="none" xmlns="http://www.w3.org/2000/svg">
<path fill-rule="evenodd" clip-rule="evenodd" d="M4.19999 6.1599C4.19999 5.15275 4.31962 3.74907 4.98327 2.56925C5.32416 1.96321 5.81334 1.40802 6.50102 1.00937C7.18798 0.61115 8.01982 0.399902 8.99998 0.399902C9.98014 0.399902 10.812 0.61115 11.499 1.00937C12.1866 1.40802 12.6758 1.96321 13.0167 2.56924C13.6804 3.74906 13.8 5.15274 13.8 6.15988L14.76 6.1599C16.3506 6.1599 17.64 7.44933 17.64 9.0399V16.7199C17.64 18.3105 16.3506 19.5999 14.76 19.5999H3.23998C1.64941 19.5999 0.359985 18.3105 0.359985 16.7199V9.0399C0.359985 7.44933 1.64941 6.1599 3.23998 6.1599H4.19999ZM6.11998 6.1599C6.11998 5.24706 6.24035 4.25073 6.65672 3.51055C6.85582 3.15659 7.11666 2.87179 7.46398 2.67044C7.81198 2.46865 8.30014 2.3199 8.99998 2.3199C9.69982 2.3199 10.188 2.46865 10.536 2.67044C10.8833 2.87179 11.1441 3.15659 11.3432 3.51056C11.7596 4.25074 11.88 5.24705 11.88 6.1599H6.11998ZM10.92 11.9199C10.92 12.5827 10.5842 13.1669 10.0735 13.512C10.0365 13.5369 9.99867 13.5606 9.95998 13.583V14.7999C9.95998 15.3301 9.53019 15.7599 8.99998 15.7599C8.46978 15.7599 8.03998 15.3301 8.03998 14.7999V13.583C7.4661 13.251 7.07998 12.6306 7.07998 11.9199C7.07998 10.8595 7.93957 9.9999 8.99998 9.9999C10.0604 9.9999 10.92 10.8595 10.92 11.9199Z" fill="#18AAA1"/>
</svg>
