<svg width="32" height="32" viewBox="0 0 32 32" fill="none" xmlns="http://www.w3.org/2000/svg">
<path d="M24 12V9.60001C24 8.10654 24 7.3598 23.7094 6.78937C23.4537 6.2876 23.0458 5.87966 22.544 5.62399C21.9736 5.33334 21.2268 5.33334 19.7334 5.33334H9.60004C8.10657 5.33334 7.35983 5.33334 6.7894 5.62399C6.28763 5.87966 5.87969 6.2876 5.62402 6.78937C5.33337 7.3598 5.33337 8.10654 5.33337 9.60001V24L10.6915 21.3209M10.6915 21.3209C10.6667 20.9041 10.6667 20.3912 10.6667 19.7333V16.2667C10.6667 14.7732 10.6667 14.0265 10.9574 13.456C11.213 12.9543 11.621 12.5463 12.1227 12.2907C12.6932 12 13.4399 12 14.9334 12H22.4C23.8935 12 24.6402 12 25.2107 12.2907C25.7124 12.5463 26.1204 12.9543 26.3761 13.456C26.6667 14.0265 26.6667 14.7732 26.6667 16.2667V26.6667L23.7416 24.7166C23.3421 24.4502 23.1423 24.3171 22.9262 24.2227C22.7344 24.139 22.5333 24.0781 22.3273 24.0414C22.0951 24 21.855 24 21.3749 24H14.9334C13.4399 24 12.6932 24 12.1227 23.7094C11.621 23.4537 11.213 23.0457 10.9574 22.544C10.7947 22.2248 10.7231 21.8504 10.6915 21.3209Z" stroke="white" stroke-width="2" stroke-linecap="round" stroke-linejoin="round"/>
</svg>
