<svg width="22" height="22" viewBox="0 0 22 22" fill="none" xmlns="http://www.w3.org/2000/svg">
<path d="M19.7168 3.16406C17.958 1.12988 14.0615 0.405273 11.001 0.405273H11C7.93947 0.405273 4.04202 1.12988 2.28322 3.16406C-0.217779 6.05762 -0.217779 13.7295 2.28322 16.6221C2.76554 17.1539 3.34237 17.5917 3.9844 17.9131C4.03156 17.9422 4.07159 17.9816 4.10158 18.0282C4.13157 18.0748 4.15076 18.1276 4.15773 18.1826L4.5215 20.3652C4.57174 20.6688 4.69732 20.955 4.88676 21.1976C5.07619 21.4402 5.32343 21.6313 5.60585 21.7537C5.88827 21.876 6.19685 21.9255 6.50336 21.8977C6.80988 21.87 7.10453 21.7658 7.36037 21.5947L10.6201 19.4219C10.6723 19.383 10.737 19.3649 10.8018 19.3711C13.9551 19.4433 17.9248 18.6953 19.7168 16.6221C22.2178 13.7295 22.2178 6.05762 19.7168 3.16406ZM10 6C10 5.73479 10.1054 5.48043 10.2929 5.2929C10.4805 5.10536 10.7348 5 11 5C11.2652 5 11.5196 5.10536 11.7071 5.2929C11.8947 5.48043 12 5.73479 12 6V10C12 10.2652 11.8947 10.5196 11.7071 10.7071C11.5196 10.8946 11.2652 11 11 11C10.7348 11 10.4805 10.8946 10.2929 10.7071C10.1054 10.5196 10 10.2652 10 10V6ZM11 14.25C10.7528 14.25 10.5111 14.1767 10.3056 14.0393C10.1 13.902 9.93978 13.7068 9.84517 13.4784C9.75056 13.25 9.72581 12.9986 9.77404 12.7561C9.82227 12.5137 9.94132 12.2909 10.1161 12.1161C10.291 11.9413 10.5137 11.8223 10.7562 11.774C10.9986 11.7258 11.25 11.7505 11.4784 11.8452C11.7068 11.9398 11.902 12.1 12.0394 12.3055C12.1767 12.5111 12.25 12.7528 12.25 13C12.2497 13.3314 12.1179 13.6492 11.8836 13.8835C11.6492 14.1179 11.3314 14.2497 11 14.25Z" fill="#18AAA1"/>
</svg>
