<svg width="32" height="32" viewBox="0 0 32 32" fill="none" xmlns="http://www.w3.org/2000/svg">
<path d="M27.5188 16.1405L27.2272 16.0001L27.5188 15.8597C29.2685 14.8773 29.8517 12.772 28.831 11.0878L26.7897 7.71938C26.3524 6.87727 25.4774 6.31587 24.6026 6.03517C23.7278 5.75447 22.7072 5.89481 21.8322 6.31587L21.5406 6.45623V6.17552C21.5406 4.2106 19.9368 2.66675 17.8954 2.66675H13.9586C11.9173 2.66675 10.3135 4.2106 10.3135 6.17552V6.45623H10.1676C9.29279 5.89481 8.41795 5.75447 7.39728 6.03517C6.37663 6.31587 5.64759 6.87727 5.21016 7.71938L3.16885 11.0878C2.1482 12.772 2.73143 14.8773 4.48112 15.8597L4.77275 16.0001L4.48112 16.1405C2.73143 17.1229 2.1482 19.2282 3.16885 20.9123L5.21016 24.2808C5.64759 25.1229 6.52244 25.6843 7.39728 25.965C8.41795 26.2457 9.29279 26.1053 10.1676 25.5439H10.3135V25.8246C10.3135 27.7895 11.9173 29.3334 13.9586 29.3334H17.8954C19.9368 29.3334 21.5406 27.7895 21.5406 25.8246V25.5439L21.8322 25.6843C22.7072 26.1053 23.7278 26.2457 24.6026 25.965C25.6233 25.6843 26.3524 25.1229 26.7897 24.2808L28.831 20.9123C29.8517 19.2282 29.2685 17.1229 27.5188 16.1405ZM16 21.3334C12.938 21.3334 10.4593 18.9474 10.4593 16.0001C10.4593 13.0527 12.938 10.6667 16 10.6667C19.062 10.6667 21.5406 13.0527 21.5406 16.0001C21.5406 18.9474 19.062 21.3334 16 21.3334Z" fill="#13C2C2"/>
</svg>
