<svg width="22" height="20" viewBox="0 0 22 20" fill="none" xmlns="http://www.w3.org/2000/svg">
<path d="M1 7.99987H4V19.9999H1C0.73478 19.9999 0.48043 19.8945 0.29289 19.707C0.10536 19.5195 0 19.2651 0 18.9999V8.99987C0 8.73465 0.10536 8.4803 0.29289 8.29276C0.48043 8.10523 0.73478 7.99987 1 7.99987ZM6.293 6.70687L12.693 0.306868C12.7781 0.221558 12.8911 0.169838 13.0112 0.161198C13.1314 0.152568 13.2506 0.187598 13.347 0.259868L14.2 0.899868C14.4369 1.07771 14.6158 1.32172 14.7143 1.60113C14.8127 1.88053 14.8262 2.18281 14.753 2.46987L13.6 6.99987H20C20.5304 6.99987 21.0391 7.21058 21.4142 7.58566C21.7893 7.96073 22 8.46944 22 8.99987V11.1039C22.0003 11.3653 21.9493 11.6241 21.85 11.8659L18.755 19.3809C18.6795 19.5641 18.5513 19.7208 18.3866 19.831C18.2219 19.9412 18.0282 20 17.83 19.9999H7C6.73478 19.9999 6.48043 19.8945 6.29289 19.707C6.10536 19.5195 6 19.2651 6 18.9999V7.41387C6.00006 7.14867 6.10545 6.89436 6.293 6.70687Z" fill="#18AAA1"/>
</svg>
