<svg width="20" height="20" viewBox="0 0 20 20" fill="none" xmlns="http://www.w3.org/2000/svg">
<path d="M9.00001 18.8464C9.00001 19.4378 8.48741 19.9041 7.90901 19.781C3.70687 18.8871 0.481043 15.3537 0.0492534 10.9986C-0.00523663 10.449 0.447733 10 1.00001 10H4.00001C4.55229 10 5.00001 10.4477 5.00001 11C5.00001 12.6569 6.34316 14 8.00001 14C8.55231 14 9.00001 14.4477 9.00001 15V18.8464Z" fill="#18AAA1"/>
<path d="M15 16.9284C15 17.6986 15.828 18.1634 16.4183 17.6688C17.2094 17.006 17.8964 16.2231 18.4512 15.3481C18.8373 14.7393 18.3607 14 17.6397 14H16C15.4477 14 15 14.4477 15 15V16.9284Z" fill="#18AAA1"/>
<path d="M10 0C12.552 0 14.8807 0.95593 16.6475 2.52924C17.2632 3.07746 16.8233 4 15.9989 4H15.8541C14.2778 4 13 5.27783 13 6.8541C13 7.17761 12.8172 7.47336 12.5279 7.61803L12.4472 7.65836C12.1657 7.79912 11.8343 7.79912 11.5528 7.65836L11.4721 7.61803C11.1828 7.47336 11 7.17761 11 6.8541C11 5.27782 9.7222 4 8.1459 4H8C7.44772 4 7 3.55228 7 3V1.19188C7 0.75503 7.28253 0.36368 7.70784 0.26393C8.4439 0.0913101 9.2113 0 10 0Z" fill="#18AAA1"/>
<path d="M1.42332 8.0002C0.791114 8.0002 0.315514 7.41853 0.516494 6.81911C1.11706 5.02793 2.21087 3.463 3.63659 2.28566C4.20594 1.81549 4.99991 2.26178 4.99991 3.00017C4.99991 4.65702 6.34305 6.00017 7.99991 6.00017H8.14579C8.61749 6.00017 8.99989 6.38256 8.99989 6.85427C8.99989 7.93532 9.61069 8.9236 10.5776 9.4071L10.6583 9.4474C11.5029 9.8697 12.497 9.8697 13.3416 9.4474L13.4222 9.4071C14.3891 8.9236 14.9999 7.93532 14.9999 6.85427C14.9999 6.38256 15.3823 6.00017 15.854 6.00017H18.5135C18.9109 6.00017 19.2751 6.23407 19.4099 6.60798C19.7918 7.66716 19.9999 8.8094 19.9999 10.0002C19.9999 10.4039 19.976 10.8021 19.9295 11.1933C19.8733 11.6656 19.4581 12.0002 18.9825 12.0002H15.9999C14.3431 12.0002 12.9999 13.3433 12.9999 15.0002V18.8083C12.9999 19.2451 12.7174 19.6365 12.2921 19.7362C12.2251 19.7519 12.1579 19.767 12.0905 19.7813C11.5121 19.9043 10.9999 19.4379 10.9999 18.8466V15.0002C10.9999 13.3433 9.65679 12.0002 7.99991 12.0002C7.44762 12.0002 6.99991 11.5525 6.99991 11.0002C6.99991 9.3433 5.65676 8.0002 3.9999 8.0002H1.42332Z" fill="#18AAA1"/>
</svg>
