<svg width="260" height="276" viewBox="0 0 260 276" fill="none" xmlns="http://www.w3.org/2000/svg">
<path d="M351.651 96.2446L308.677 53.2707C307.814 52.4074 306.645 51.9217 305.422 51.9217H291.366L301.309 41.9786C302.172 41.1153 302.658 39.9432 302.658 38.7232V-22.0536C302.658 -24.5956 300.596 -26.6579 298.054 -26.6579H237.28C236.057 -26.6579 234.888 -26.1723 234.024 -25.309L224.078 -15.3633V-29.4217C224.078 -30.6418 223.593 -31.8138 222.729 -32.6772L179.755 -75.6511C177.957 -77.4496 175.043 -77.4496 173.245 -75.6511L130.271 -32.6772C129.407 -31.8138 128.922 -30.6418 128.922 -29.4217V-15.3633L118.976 -25.309C118.112 -26.1723 116.943 -26.6579 115.72 -26.6579H54.9464C52.4044 -26.6579 50.3421 -24.5956 50.3421 -22.0536V-0.875381C50.3421 1.6666 52.4044 3.72897 54.9464 3.72897C57.4884 3.72897 59.5508 1.6666 59.5508 -0.875381V-17.4492H113.814L128.922 -2.34196V51.9217H74.655L59.5508 36.8167V17.542C59.5508 15 57.4884 12.9377 54.9464 12.9377C52.4044 12.9377 50.3421 15 50.3421 17.542V38.7232C50.3421 39.9432 50.8277 41.1153 51.691 41.9786L61.6337 51.9217H47.5783C46.3552 51.9217 45.1862 52.4074 44.3228 53.2707L1.34893 96.2446C-0.449643 98.0432 -0.449643 100.957 1.34893 102.755L44.3228 145.729C45.1862 146.593 46.3552 147.078 47.5783 147.078H61.6337L51.691 157.021C50.8277 157.885 50.3421 159.057 50.3421 160.277V221.054C50.3421 223.596 52.4044 225.658 54.9464 225.658H115.72C116.943 225.658 118.112 225.172 118.976 224.309L128.922 214.363V228.422C128.922 229.642 129.407 230.814 130.271 231.677L173.245 274.651C174.144 275.55 175.319 276 176.5 276C177.681 276 178.856 275.55 179.755 274.651L222.729 231.677C223.593 230.814 224.078 229.642 224.078 228.422V214.363L234.024 224.309C234.888 225.172 236.057 225.658 237.28 225.658H298.054C300.596 225.658 302.658 223.596 302.658 221.054V200.796C302.658 198.254 300.596 196.191 298.054 196.191C295.512 196.191 293.449 198.254 293.449 200.796V216.449H239.186L224.078 201.342V147.078H278.345L293.449 162.183V182.378C293.449 184.92 295.512 186.983 298.054 186.983C300.596 186.983 302.658 184.92 302.658 182.378V160.277C302.658 159.057 302.172 157.885 301.309 157.021L291.366 147.078H305.422C306.645 147.078 307.814 146.593 308.677 145.729L351.651 102.755C353.45 100.957 353.45 98.0432 351.651 96.2446ZM224.078 -2.34196L239.186 -17.4492H293.449V36.8167L278.345 51.9217H224.078V-2.34196ZM224.078 61.1304H269.137L237.279 92.9895L224.078 79.7906V61.1304ZM138.13 -27.5153L176.5 -65.8848L214.87 -27.5153V-6.15532L176.5 32.2124L138.13 -6.15532V-27.5153ZM214.87 6.86636V51.9217H196.212L183.011 38.7228L214.87 6.86636ZM138.13 6.86636L169.989 38.7228L156.788 51.9217H138.13V6.86636ZM128.922 61.1304V79.7906L115.721 92.9895L83.8634 61.1304H128.922ZM49.4847 137.87L11.1152 99.5L49.4847 61.1304H70.8417L109.209 99.5L70.8417 137.87H49.4847ZM128.922 201.342L113.814 216.449H59.5508V162.183L74.655 147.078H128.922V201.342ZM128.922 137.87H83.8634L115.721 106.01L128.922 119.209V137.87ZM214.87 226.515L176.5 264.885L138.13 226.515V205.155L176.5 166.788L214.87 205.155V226.515ZM138.13 192.134V147.078H156.788L169.989 160.277L138.13 192.134ZM214.87 192.134L183.011 160.277L196.212 147.078H214.87V192.134ZM216.219 114.047C215.355 114.911 214.87 116.083 214.87 117.303V137.87H194.306C193.083 137.87 191.914 138.355 191.05 139.219L176.5 153.766L161.95 139.219C161.086 138.355 159.917 137.87 158.694 137.87H138.13V117.303C138.13 116.083 137.645 114.911 136.782 114.047L122.231 99.5L136.782 84.9525C137.645 84.0892 138.13 82.9172 138.13 81.6971V61.1304H158.694C159.917 61.1304 161.086 60.6448 161.95 59.7815L176.5 45.234L191.05 59.7815C191.914 60.6448 193.083 61.1304 194.306 61.1304H214.87V81.6971C214.87 82.9172 215.355 84.0892 216.219 84.9525L230.769 99.5L216.219 114.047ZM224.078 137.87V119.209L237.279 106.01L269.137 137.87H224.078ZM303.515 137.87H282.158L243.791 99.5L282.158 61.1304H303.515L341.885 99.5L303.515 137.87Z" fill="#DBDBDB" fill-opacity="0.1"/>
</svg>
